<svg width="103" height="120" viewBox="0 0 103 120" fill="none" xmlns="http://www.w3.org/2000/svg">
<rect y="17" width="103" height="103" rx="30" fill="white"/>
<path d="M20.704 103L20.032 86.2H25.024L25.696 90.328C25.952 91.736 26.4 92.888 27.04 93.784C27.68 94.616 28.64 95.256 29.92 95.704C31.2 96.088 32.832 96.28 34.816 96.28H43.168L43.744 90.712C39.072 89.112 35.008 87.096 31.552 84.664C28.16 82.232 25.536 79.192 23.68 75.544C21.888 71.832 20.992 67.32 20.992 62.008C20.992 56.44 22.176 51.512 24.544 47.224C26.912 42.936 30.432 39.576 35.104 37.144C39.776 34.648 45.504 33.4 52.288 33.4C58.752 33.4 64.288 34.552 68.896 36.856C73.504 39.096 77.056 42.296 79.552 46.456C82.048 50.552 83.296 55.384 83.296 60.952C83.296 66.264 82.368 70.872 80.512 74.776C78.72 78.616 76.128 81.848 72.736 84.472C69.344 87.032 65.28 89.112 60.544 90.712L61.12 96.28H69.472C71.52 96.28 73.152 96.088 74.368 95.704C75.648 95.256 76.608 94.616 77.248 93.784C77.952 92.888 78.4 91.736 78.592 90.328L79.264 86.2H84.256L83.584 103H57.184L55.744 86.776C59.648 85.688 62.816 83.992 65.248 81.688C67.744 79.384 69.6 76.504 70.816 73.048C72.032 69.528 72.64 65.464 72.64 60.856C72.64 56.12 71.936 52.12 70.528 48.856C69.12 45.528 66.912 43 63.904 41.272C60.896 39.48 57.024 38.584 52.288 38.584C47.552 38.584 43.648 39.544 40.576 41.464C37.504 43.384 35.232 46.104 33.76 49.624C32.352 53.08 31.648 57.176 31.648 61.912C31.648 66.52 32.256 70.488 33.472 73.816C34.688 77.144 36.544 79.864 39.04 81.976C41.536 84.088 44.704 85.688 48.544 86.776L47.2 103H20.704Z" fill="#006B0B"/>
</svg>
