<svg width="141" height="61" viewBox="0 0 141 61" fill="none" xmlns="http://www.w3.org/2000/svg">
<g filter="url(#filter0_d_111_7)">
<path d="M21.88 17.84C21.5067 17.84 21.1333 17.7533 20.76 17.58C20.4 17.4067 20.06 17.1533 19.74 16.82C19.2733 16.34 18.8667 15.7667 18.52 15.1C18.1867 14.42 17.9 13.7267 17.66 13.02C17.42 12.3 17.2333 11.6467 17.1 11.06C16.9667 10.46 16.8733 10 16.82 9.68C16.3267 10.6267 15.8133 11.5667 15.28 12.5C14.76 13.42 14.0933 14.3267 13.28 15.22C12.5067 16.06 11.66 16.6933 10.74 17.12C9.82 17.56 8.86667 17.78 7.88 17.78C7.57333 17.78 7.26 17.76 6.94 17.72C6.06 17.6133 5.41333 17.36 5 16.96C4.58667 16.56 4.38 16.1333 4.38 15.68C4.38 15.1867 4.6 14.74 5.04 14.34C5.48 13.94 6.10667 13.74 6.92 13.74C7.18667 13.74 7.47333 13.7667 7.78 13.82C8.08667 13.8733 8.40667 13.96 8.74 14.08C8.88667 14.1333 8.96 14.1933 8.96 14.26C8.96 14.3133 8.90667 14.34 8.8 14.34C8.73333 14.34 8.68 14.3333 8.64 14.32C8.2 14.16 7.80667 14.08 7.46 14.08C6.9 14.08 6.47333 14.2467 6.18 14.58C5.88667 14.9 5.74 15.2533 5.74 15.64C5.74 16.0133 5.9 16.36 6.22 16.68C6.54 17 7.03333 17.16 7.7 17.16C8.54 17.16 9.31333 16.9667 10.02 16.58C10.7267 16.18 11.3867 15.64 12 14.96C12.6133 14.2667 13.2 13.4867 13.76 12.62C14.32 11.74 14.8667 10.8267 15.4 9.88C16.2933 8.29333 17.1 6.85333 17.82 5.56C18.5533 4.25333 19.3267 3.14667 20.14 2.24C19.78 2.2 19.4133 2.17333 19.04 2.16C18.6667 2.14667 18.2867 2.14 17.9 2.14C17.06 2.14 16.1867 2.18667 15.28 2.28C14.3867 2.36 13.52 2.49333 12.68 2.68C11.5467 2.92 10.5733 3.28 9.76 3.76C8.94667 4.22667 8.3 4.75333 7.82 5.34C7.35333 5.91333 7.06 6.49333 6.94 7.08C6.9 7.29333 6.88 7.5 6.88 7.7C6.88 8.38 7.10667 8.90667 7.56 9.28C8.01333 9.65333 8.53333 9.84 9.12 9.84C9.49333 9.84 9.86667 9.76667 10.24 9.62C10.6267 9.46 10.9733 9.21333 11.28 8.88C11.5333 8.61333 11.72 8.36667 11.84 8.14C11.96 7.9 12.0267 7.72 12.04 7.6C12.0533 7.41333 12.0933 7.32 12.16 7.32C12.2 7.32 12.2333 7.35333 12.26 7.42C12.3 7.48667 12.3133 7.55333 12.3 7.62C12.2467 7.92667 12.1533 8.22667 12.02 8.52C11.8867 8.81333 11.7267 9.06 11.54 9.26C11.1667 9.64667 10.74 9.93333 10.26 10.12C9.78 10.3067 9.32 10.4 8.88 10.4C8.36 10.4 7.86667 10.2867 7.4 10.06C6.94667 9.83333 6.58 9.50667 6.3 9.08C6.02 8.64 5.88 8.1 5.88 7.46C5.88 6.71333 6.14 5.95333 6.66 5.18C7.18 4.39333 7.96 3.7 9 3.1C10.0533 2.5 11.36 2.08667 12.92 1.86C13.7067 1.75333 14.4667 1.67333 15.2 1.62C15.9467 1.55333 16.6667 1.52 17.36 1.52C17.92 1.52 18.4667 1.54 19 1.58C19.5333 1.62 20.06 1.67333 20.58 1.74C20.9267 1.38 21.16 1.2 21.28 1.2C21.3733 1.2 21.42 1.27333 21.42 1.42C21.42 1.47333 21.4133 1.54 21.4 1.62C21.3867 1.7 21.3667 1.78 21.34 1.86C21.7 1.91333 22.0467 1.97333 22.38 2.04C22.7267 2.09333 23.0333 2.16 23.3 2.24C24.3533 2.53333 25.12 2.92 25.6 3.4C26.0933 3.86667 26.34 4.37333 26.34 4.92C26.34 5.50667 26.0733 6.09333 25.54 6.68C25.02 7.26667 24.28 7.78667 23.32 8.24C22.3733 8.69333 21.26 9.02667 19.98 9.24C19.5667 9.30667 19.2 9.35333 18.88 9.38C18.5733 9.40667 18.3067 9.42667 18.08 9.44C18.1067 9.57333 18.1667 9.85333 18.26 10.28C18.3533 10.7067 18.4867 11.2133 18.66 11.8C18.8333 12.3733 19.0533 12.98 19.32 13.62C19.6 14.26 19.9333 14.8667 20.32 15.44C20.6267 15.8933 20.94 16.2667 21.26 16.56C21.58 16.8533 21.92 17 22.28 17C22.5067 17 22.74 16.94 22.98 16.82C23.2333 16.7 23.4933 16.5067 23.76 16.24C24.08 15.92 24.3733 15.56 24.64 15.16C24.9067 14.76 25.1333 14.38 25.32 14.02C25.5067 13.6467 25.6467 13.3533 25.74 13.14C25.82 13.14 25.88 13.1467 25.92 13.16C25.96 13.1733 25.98 13.2267 25.98 13.32C25.9267 13.4533 25.8333 13.6667 25.7 13.96C25.5667 14.24 25.4067 14.56 25.22 14.92C25.0467 15.2667 24.8533 15.6133 24.64 15.96C24.4267 16.3067 24.2133 16.6 24 16.84C23.6933 17.1733 23.3467 17.42 22.96 17.58C22.5867 17.7533 22.2267 17.84 21.88 17.84ZM17.24 8.9C17.6267 8.83333 18.04 8.78667 18.48 8.76C18.92 8.73333 19.3533 8.69333 19.78 8.64C20.4733 8.54667 21.1267 8.36667 21.74 8.1C22.3533 7.82 22.8933 7.48667 23.36 7.1C23.84 6.71333 24.2133 6.30667 24.48 5.88C24.7467 5.44 24.88 5.02 24.88 4.62C24.88 3.71333 24.2733 3.08667 23.06 2.74C22.82 2.67333 22.5067 2.60667 22.12 2.54C21.7467 2.47333 21.4067 2.41333 21.1 2.36C20.46 3.45333 19.8 4.52667 19.12 5.58C18.4533 6.63333 17.8267 7.74 17.24 8.9ZM27.1864 17.08C26.6931 17.08 26.2464 16.92 25.8464 16.6C25.4597 16.28 25.2664 15.7933 25.2664 15.14C25.2664 14.5933 25.3864 14.0133 25.6264 13.4C25.8797 12.7867 26.2064 12.2133 26.6064 11.68C27.0197 11.1333 27.4731 10.6933 27.9664 10.36C28.4731 10.0133 28.9797 9.84 29.4864 9.84C29.7397 9.84 29.9864 9.91333 30.2264 10.06C30.4664 10.2067 30.5864 10.46 30.5864 10.82C30.5864 11.1533 30.4597 11.52 30.2064 11.92C29.9531 12.32 29.5931 12.6933 29.1264 13.04C28.9264 13.1867 28.6731 13.3267 28.3664 13.46C28.0597 13.5933 27.7531 13.7067 27.4464 13.8C27.1397 13.88 26.8864 13.92 26.6864 13.92C26.6197 14.08 26.5531 14.2933 26.4864 14.56C26.4331 14.8267 26.4064 15.1 26.4064 15.38C26.4064 15.7133 26.4731 16.0133 26.6064 16.28C26.7397 16.5467 26.9864 16.68 27.3464 16.68C27.7864 16.68 28.1931 16.5533 28.5664 16.3C28.9531 16.0467 29.2931 15.7267 29.5864 15.34C29.8931 14.9533 30.1531 14.56 30.3664 14.16C30.5797 13.76 30.7464 13.42 30.8664 13.14C31.0264 13.14 31.1064 13.2 31.1064 13.32C30.9331 13.6933 30.7331 14.1 30.5064 14.54C30.2931 14.98 30.0331 15.3933 29.7264 15.78C29.4331 16.1533 29.0731 16.4667 28.6464 16.72C28.2331 16.96 27.7464 17.08 27.1864 17.08ZM26.8264 13.56C27.0131 13.56 27.3264 13.4933 27.7664 13.36C28.2064 13.2133 28.6064 12.9867 28.9664 12.68C29.3131 12.3733 29.5797 12.04 29.7664 11.68C29.9531 11.3067 30.0464 10.9933 30.0464 10.74C30.0464 10.4467 29.9397 10.3 29.7264 10.3C29.5664 10.3 29.3464 10.4067 29.0664 10.62C28.7864 10.8333 28.4397 11.1933 28.0264 11.7C27.7731 12.02 27.5331 12.3667 27.3064 12.74C27.0797 13.1133 26.9197 13.3867 26.8264 13.56ZM31.8036 17.06C31.3103 17.06 30.9436 16.9133 30.7036 16.62C30.4769 16.3133 30.3636 15.9533 30.3636 15.54C30.3636 15.1133 30.4236 14.6733 30.5436 14.22C30.6636 13.7667 30.7703 13.3867 30.8636 13.08C31.0769 12.3333 31.3436 11.54 31.6636 10.7C31.9969 9.84667 32.3569 9.01333 32.7436 8.2C33.1436 7.37333 33.5369 6.63333 33.9236 5.98C34.2303 5.46 34.5569 5.07333 34.9036 4.82C35.2636 4.55333 35.5769 4.42 35.8436 4.42C36.0569 4.42 36.2236 4.5 36.3436 4.66C36.4769 4.80667 36.5436 5.03333 36.5436 5.34C36.5436 5.55333 36.5036 5.80667 36.4236 6.1C36.3569 6.39333 36.2369 6.72667 36.0636 7.1C35.5969 8.14 35.0369 9.18 34.3836 10.22C33.7436 11.26 32.9303 12.2333 31.9436 13.14C31.7836 13.5133 31.6503 13.9133 31.5436 14.34C31.4369 14.7667 31.3836 15.1133 31.3836 15.38C31.3836 16.2067 31.6636 16.62 32.2236 16.62C32.6503 16.62 33.1236 16.3133 33.6436 15.7C34.1636 15.0733 34.6569 14.22 35.1236 13.14C35.1769 13.14 35.2303 13.1533 35.2836 13.18C35.3369 13.1933 35.3636 13.24 35.3636 13.32C35.2169 13.68 35.0303 14.08 34.8036 14.52C34.5903 14.9467 34.3369 15.3533 34.0436 15.74C33.7636 16.1267 33.4369 16.4467 33.0636 16.7C32.6903 16.94 32.2703 17.06 31.8036 17.06ZM32.1036 12.5C32.5836 12.0067 33.0503 11.44 33.5036 10.8C33.9569 10.1467 34.3769 9.47333 34.7636 8.78C35.1636 8.07333 35.4969 7.40667 35.7636 6.78C35.8569 6.58 35.9303 6.36 35.9836 6.12C36.0503 5.88 36.0836 5.68 36.0836 5.52C36.0836 5.33333 36.0369 5.24 35.9436 5.24C35.8903 5.24 35.8103 5.29333 35.7036 5.4C35.5969 5.49333 35.4569 5.66 35.2836 5.9C35.0303 6.23333 34.7503 6.68667 34.4436 7.26C34.1503 7.83333 33.8503 8.44667 33.5436 9.1C33.2369 9.75333 32.9569 10.3867 32.7036 11C32.4503 11.6 32.2503 12.1 32.1036 12.5ZM36.3214 17C35.7747 17 35.3681 16.8067 35.1014 16.42C34.8481 16.02 34.7214 15.54 34.7214 14.98C34.7214 14.46 34.8214 13.92 35.0214 13.36C35.2347 12.7467 35.5281 12.1867 35.9014 11.68C36.2881 11.1733 36.7081 10.7667 37.1614 10.46C37.6281 10.14 38.0881 9.98 38.5414 9.98C39.0881 9.98 39.4881 10.1667 39.7414 10.54C40.0081 10.9133 40.1414 11.3867 40.1414 11.96C40.1414 12.36 40.0747 12.78 39.9414 13.22C39.8081 13.66 39.6281 14.0933 39.4014 14.52C39.5747 14.6933 39.8214 14.78 40.1414 14.78C40.5147 14.78 40.8347 14.66 41.1014 14.42C41.3681 14.18 41.6281 13.7533 41.8814 13.14C42.0414 13.14 42.1214 13.2 42.1214 13.32C41.8681 13.9333 41.5747 14.3867 41.2414 14.68C40.9214 14.96 40.5081 15.0933 40.0014 15.08C39.6947 15.08 39.4414 14.9933 39.2414 14.82C38.8681 15.4333 38.4214 15.9533 37.9014 16.38C37.3947 16.7933 36.8681 17 36.3214 17ZM36.6014 16.56C36.9081 16.56 37.2147 16.4333 37.5214 16.18C37.8281 15.9133 38.1081 15.6133 38.3614 15.28C38.6147 14.9467 38.7947 14.66 38.9014 14.42C38.6881 14.0333 38.5614 13.7467 38.5214 13.56C38.4947 13.36 38.4814 13.2133 38.4814 13.12C38.4814 12.8667 38.5481 12.6733 38.6814 12.54C38.8147 12.4067 38.9481 12.34 39.0814 12.34C39.2681 12.34 39.4281 12.42 39.5614 12.58C39.5881 12.4333 39.6081 12.3 39.6214 12.18C39.6347 12.0467 39.6414 11.92 39.6414 11.8C39.6414 11.4533 39.5747 11.1733 39.4414 10.96C39.3214 10.7333 39.1281 10.62 38.8614 10.62C38.5814 10.62 38.2881 10.74 37.9814 10.98C37.6747 11.22 37.3814 11.54 37.1014 11.94C36.8347 12.34 36.6014 12.7867 36.4014 13.28C36.2281 13.6933 36.0947 14.0867 36.0014 14.46C35.9081 14.82 35.8614 15.1533 35.8614 15.46C35.8614 15.7933 35.9214 16.06 36.0414 16.26C36.1614 16.46 36.3481 16.56 36.6014 16.56ZM34.6592 23.38C33.9659 23.38 33.4792 23.24 33.1992 22.96C32.9059 22.6933 32.7592 22.3733 32.7592 22C32.7592 21.64 32.8592 21.28 33.0592 20.92C33.2459 20.5333 33.5059 20.2 33.8392 19.92C34.1726 19.6533 34.5392 19.4267 34.9392 19.24C35.6192 18.92 36.4059 18.66 37.2992 18.46C38.1792 18.26 39.0259 18.04 39.8392 17.8C39.9459 17.6133 40.0592 17.42 40.1792 17.22C40.2859 17.02 40.3859 16.8267 40.4792 16.64C40.7459 16.1067 40.9926 15.58 41.2192 15.06C41.4459 14.5267 41.7259 13.9533 42.0592 13.34C41.9392 13.34 41.8792 13.2733 41.8792 13.14L42.7592 11.12C42.7726 11.0933 42.7859 11.06 42.7992 11.02C42.8126 10.9667 42.8192 10.9133 42.8192 10.86C42.8192 10.7133 42.7859 10.5933 42.7192 10.5C42.6526 10.3933 42.6059 10.32 42.5792 10.28L43.6792 10.24H43.7792C44.0726 10.24 44.2192 10.3333 44.2192 10.52C44.2192 10.6133 44.1792 10.76 44.0992 10.96L42.4992 14.72C42.3126 15.16 42.1126 15.6 41.8992 16.04C41.6859 16.48 41.4659 16.9267 41.2392 17.38C42.1726 17.02 42.9126 16.58 43.4592 16.06C44.0192 15.5267 44.4459 15 44.7392 14.48C45.0459 13.9467 45.2792 13.5 45.4392 13.14C45.5992 13.14 45.6792 13.2 45.6792 13.32C45.5459 13.6133 45.3726 13.9667 45.1592 14.38C44.9459 14.78 44.6659 15.2067 44.3192 15.66C43.9726 16.1 43.5259 16.5267 42.9792 16.94C42.4326 17.3533 41.7459 17.7133 40.9192 18.02C40.5992 18.5933 40.2326 19.1867 39.8192 19.8C39.4059 20.4267 38.9392 21.0067 38.4192 21.54C37.8992 22.0867 37.3326 22.5267 36.7192 22.86C36.0926 23.2067 35.4059 23.38 34.6592 23.38ZM34.1792 22.98C34.6192 22.98 35.0792 22.8467 35.5592 22.58C36.0259 22.3133 36.4792 21.9733 36.9192 21.56C37.3592 21.16 37.7659 20.7467 38.1392 20.32C38.4992 19.8933 38.7926 19.52 39.0192 19.2C39.0992 19.0933 39.1726 18.9733 39.2392 18.84C39.3059 18.7067 39.3726 18.5733 39.4392 18.44C38.7992 18.6133 38.0926 18.8 37.3192 19C36.5459 19.2133 35.8659 19.4467 35.2792 19.7C34.6392 19.9667 34.1392 20.34 33.7792 20.82C33.4192 21.3133 33.2392 21.7533 33.2392 22.14C33.2392 22.3933 33.3192 22.5933 33.4792 22.74C33.6259 22.9 33.8592 22.98 34.1792 22.98ZM44.2592 9C44.0859 9 43.9326 8.93333 43.7992 8.8C43.6792 8.66667 43.6192 8.50667 43.6192 8.32C43.6192 8.09333 43.7126 7.89333 43.8992 7.72C44.0859 7.53333 44.2926 7.44 44.5192 7.44C44.7059 7.44 44.8659 7.5 44.9992 7.62C45.1326 7.74 45.1992 7.89333 45.1992 8.08C45.1992 8.32 45.1059 8.53333 44.9192 8.72C44.7326 8.90667 44.5126 9 44.2592 9ZM46.8739 17.08C46.3806 17.08 45.9339 16.92 45.5339 16.6C45.1472 16.28 44.9539 15.7933 44.9539 15.14C44.9539 14.5933 45.0739 14.0133 45.3139 13.4C45.5672 12.7867 45.8939 12.2133 46.2939 11.68C46.7072 11.1333 47.1606 10.6933 47.6539 10.36C48.1606 10.0133 48.6672 9.84 49.1739 9.84C49.4272 9.84 49.6739 9.91333 49.9139 10.06C50.1539 10.2067 50.2739 10.46 50.2739 10.82C50.2739 11.1533 50.1472 11.52 49.8939 11.92C49.6406 12.32 49.2806 12.6933 48.8139 13.04C48.6139 13.1867 48.3606 13.3267 48.0539 13.46C47.7472 13.5933 47.4406 13.7067 47.1339 13.8C46.8272 13.88 46.5739 13.92 46.3739 13.92C46.3072 14.08 46.2406 14.2933 46.1739 14.56C46.1206 14.8267 46.0939 15.1 46.0939 15.38C46.0939 15.7133 46.1606 16.0133 46.2939 16.28C46.4272 16.5467 46.6739 16.68 47.0339 16.68C47.4739 16.68 47.8806 16.5533 48.2539 16.3C48.6406 16.0467 48.9806 15.7267 49.2739 15.34C49.5806 14.9533 49.8406 14.56 50.0539 14.16C50.2672 13.76 50.4339 13.42 50.5539 13.14C50.7139 13.14 50.7939 13.2 50.7939 13.32C50.6206 13.6933 50.4206 14.1 50.1939 14.54C49.9806 14.98 49.7206 15.3933 49.4139 15.78C49.1206 16.1533 48.7606 16.4667 48.3339 16.72C47.9206 16.96 47.4339 17.08 46.8739 17.08ZM46.5139 13.56C46.7006 13.56 47.0139 13.4933 47.4539 13.36C47.8939 13.2133 48.2939 12.9867 48.6539 12.68C49.0006 12.3733 49.2672 12.04 49.4539 11.68C49.6406 11.3067 49.7339 10.9933 49.7339 10.74C49.7339 10.4467 49.6272 10.3 49.4139 10.3C49.2539 10.3 49.0339 10.4067 48.7539 10.62C48.4739 10.8333 48.1272 11.1933 47.7139 11.7C47.4606 12.02 47.2206 12.3667 46.9939 12.74C46.7672 13.1133 46.6072 13.3867 46.5139 13.56ZM50.5711 13.08C50.6778 12.8533 50.8178 12.4933 50.9911 12C51.1644 11.4933 51.3444 10.9333 51.5311 10.32C51.7178 9.70667 51.8578 9.12667 51.9511 8.58C51.9911 8.36667 52.0644 8.21333 52.1711 8.12C52.2778 8.01333 52.3911 7.96 52.5111 7.96C52.6844 7.96 52.8444 8.04667 52.9911 8.22C53.1378 8.38 53.2111 8.61333 53.2111 8.92C53.2111 9.29333 53.0978 9.61333 52.8711 9.88C52.6578 10.1467 52.3911 10.4 52.0711 10.64C52.2044 10.6533 52.3444 10.6667 52.4911 10.68C52.6378 10.68 52.7978 10.68 52.9711 10.68C53.5978 10.68 54.2178 10.64 54.8311 10.56C54.8578 10.64 54.8711 10.7 54.8711 10.74C54.8711 10.9133 54.8178 11.1333 54.7111 11.4C54.6178 11.6667 54.5178 11.9067 54.4111 12.12C54.3578 12.24 54.2511 12.46 54.0911 12.78C53.9311 13.0867 53.7578 13.44 53.5711 13.84C53.3844 14.2267 53.2244 14.6133 53.0911 15C52.9711 15.3733 52.9111 15.6933 52.9111 15.96C52.9111 16.3067 53.0444 16.48 53.3111 16.48C53.5644 16.48 53.9178 16.1867 54.3711 15.6C54.8244 15 55.2778 14.18 55.7311 13.14C55.8911 13.14 55.9711 13.2 55.9711 13.32C55.8244 13.68 55.6378 14.0733 55.4111 14.5C55.1978 14.9267 54.9578 15.3333 54.6911 15.72C54.4244 16.0933 54.1378 16.4067 53.8311 16.66C53.5244 16.9 53.2044 17.02 52.8711 17.02C52.6178 17.02 52.3644 16.92 52.1111 16.72C51.8578 16.5067 51.7311 16.1667 51.7311 15.7C51.7311 15.2867 51.8111 14.8867 51.9711 14.5C52.1311 14.1 52.3111 13.7267 52.5111 13.38C52.7111 13.0333 52.8911 12.7267 53.0511 12.46C53.2111 12.1933 53.2911 11.98 53.2911 11.82C53.2911 11.58 53.1378 11.4067 52.8311 11.3C52.5378 11.1933 52.1511 11.1333 51.6711 11.12C51.4311 11.7333 51.2511 12.1867 51.1311 12.48C51.0111 12.7733 50.8978 13.0533 50.7911 13.32C50.5778 13.32 50.5044 13.24 50.5711 13.08ZM56.2869 17C55.7935 17 55.4469 16.86 55.2469 16.58C55.0469 16.2867 54.9469 15.9533 54.9469 15.58C54.9469 15.38 54.9669 15.18 55.0069 14.98C55.0602 14.7667 55.1202 14.5733 55.1869 14.4L56.5269 10.98C56.5669 10.8733 56.5869 10.78 56.5869 10.7C56.5869 10.5667 56.5535 10.4533 56.4869 10.36C56.4202 10.2533 56.3735 10.18 56.3469 10.14L57.4469 10.1C57.6469 10.0867 57.7869 10.1133 57.8669 10.18C57.9602 10.2333 58.0069 10.3 58.0069 10.38C58.0069 10.46 57.9602 10.6067 57.8669 10.82C57.7335 11.14 57.5535 11.54 57.3269 12.02C57.1002 12.5 56.8735 12.9933 56.6469 13.5C56.4335 14.0067 56.2469 14.48 56.0869 14.92C55.9402 15.36 55.8669 15.7 55.8669 15.94C55.8669 16.1133 55.9069 16.26 55.9869 16.38C56.0802 16.5 56.2335 16.56 56.4469 16.56C56.7269 16.56 57.0002 16.4533 57.2669 16.24C57.5469 16.0133 57.8069 15.7267 58.0469 15.38C58.2869 15.0333 58.5069 14.66 58.7069 14.26C58.9202 13.86 59.1002 13.4867 59.2469 13.14C59.4069 13.14 59.4869 13.2 59.4869 13.32C59.3535 13.6533 59.1802 14.0333 58.9669 14.46C58.7535 14.8867 58.5069 15.2933 58.2269 15.68C57.9602 16.0533 57.6602 16.3667 57.3269 16.62C57.0069 16.8733 56.6602 17 56.2869 17ZM58.0669 8.86C57.8935 8.86 57.7402 8.79333 57.6069 8.66C57.4869 8.52667 57.4269 8.36667 57.4269 8.18C57.4269 7.95333 57.5202 7.75333 57.7069 7.58C57.8935 7.39333 58.1002 7.3 58.3269 7.3C58.5135 7.3 58.6735 7.36 58.8069 7.48C58.9402 7.6 59.0069 7.75333 59.0069 7.94C59.0069 8.18 58.9135 8.39333 58.7269 8.58C58.5402 8.76667 58.3202 8.86 58.0669 8.86ZM63.5825 17.06C63.2758 17.06 63.0025 16.9733 62.7625 16.8C62.5358 16.6267 62.4225 16.2733 62.4225 15.74C62.4225 15.5133 62.4358 15.3 62.4625 15.1C62.5025 14.9 62.5492 14.6867 62.6025 14.46C62.4825 14.66 62.3158 14.9067 62.1025 15.2C61.8892 15.4933 61.6492 15.78 61.3825 16.06C61.1292 16.34 60.8625 16.5733 60.5825 16.76C60.3158 16.9467 60.0625 17.04 59.8225 17.04C59.4758 17.04 59.1958 16.8867 58.9825 16.58C58.7692 16.26 58.6625 15.8467 58.6625 15.34C58.6625 14.7933 58.7892 14.2067 59.0425 13.58C59.2958 12.9533 59.6425 12.3533 60.0825 11.78C60.5225 11.2067 61.0292 10.74 61.6025 10.38C62.1758 10.02 62.7758 9.84 63.4025 9.84C63.7092 9.84 64.0025 9.89333 64.2825 10C64.5625 10.0933 64.8092 10.2533 65.0225 10.48C65.1158 10.5733 65.1625 10.68 65.1625 10.8C65.1625 10.88 65.1292 10.9467 65.0625 11C64.9958 11.0533 64.9092 11.0667 64.8025 11.04C64.6558 10.5733 64.3425 10.34 63.8625 10.34C63.6358 10.34 63.3758 10.4133 63.0825 10.56C62.7225 10.7467 62.3358 11.0467 61.9225 11.46C61.5225 11.86 61.1425 12.32 60.7825 12.84C60.4358 13.3467 60.1492 13.86 59.9225 14.38C59.6958 14.9 59.5825 15.3733 59.5825 15.8C59.5825 16.24 59.7492 16.46 60.0825 16.46C60.3758 16.46 60.6758 16.32 60.9825 16.04C61.3025 15.76 61.6025 15.4133 61.8825 15C62.1758 14.5733 62.4425 14.1533 62.6825 13.74C62.9225 13.3267 63.1092 12.9933 63.2425 12.74C63.4425 12.38 63.6292 12.08 63.8025 11.84C63.9758 11.6 64.2225 11.48 64.5425 11.48C64.6892 11.48 64.8358 11.5 64.9825 11.54C65.1292 11.58 65.2825 11.5867 65.4425 11.56C65.0425 11.96 64.6892 12.4333 64.3825 12.98C64.0892 13.5267 63.8625 14.0667 63.7025 14.6C63.5425 15.12 63.4625 15.56 63.4625 15.92C63.4625 16.32 63.5958 16.52 63.8625 16.52C64.0758 16.52 64.3025 16.4 64.5425 16.16C64.7958 15.92 65.0358 15.62 65.2625 15.26C65.5025 14.8867 65.7225 14.5133 65.9225 14.14C66.1225 13.7533 66.2825 13.42 66.4025 13.14C66.4692 13.14 66.5225 13.1467 66.5625 13.16C66.6158 13.1733 66.6425 13.2267 66.6425 13.32C66.6292 13.3733 66.6025 13.4333 66.5625 13.5C66.5358 13.5533 66.4892 13.6533 66.4225 13.8C66.3158 14.0133 66.1692 14.3 65.9825 14.66C65.7958 15.02 65.5758 15.3867 65.3225 15.76C65.0692 16.12 64.7958 16.4267 64.5025 16.68C64.2092 16.9333 63.9025 17.06 63.5825 17.06ZM67.0684 23.38C66.3751 23.38 65.8818 23.24 65.5884 22.96C65.2951 22.6933 65.1484 22.3733 65.1484 22C65.1484 21.4267 65.3618 20.8933 65.7884 20.4C66.2018 19.92 66.7151 19.5333 67.3284 19.24C68.0218 18.92 68.8084 18.66 69.6884 18.46C70.5818 18.26 71.4351 18.04 72.2484 17.8C72.5018 17.36 72.7351 16.86 72.9484 16.3C73.1618 15.7267 73.3551 15.1733 73.5284 14.64C73.7018 14.0933 73.8418 13.6467 73.9484 13.3C73.7884 13.5933 73.5818 13.9533 73.3284 14.38C73.0884 14.7933 72.8151 15.2 72.5084 15.6C72.2018 16 71.8684 16.3333 71.5084 16.6C71.1618 16.8667 70.7951 17 70.4084 17C70.2618 17 70.0818 16.9667 69.8684 16.9C69.6684 16.8333 69.4884 16.7133 69.3284 16.54C69.1818 16.3533 69.1084 16.08 69.1084 15.72C69.1084 15.3733 69.2151 14.9933 69.4284 14.58C69.6418 14.1533 69.8551 13.7333 70.0684 13.32C70.0018 13.32 69.9418 13.3133 69.8884 13.3C69.8484 13.2867 69.8284 13.2333 69.8284 13.14C69.8684 13.06 69.9484 12.8867 70.0684 12.62C70.1884 12.3533 70.3218 12.06 70.4684 11.74C70.6284 11.42 70.7684 11.14 70.8884 10.9C71.0351 10.5933 71.1951 10.38 71.3684 10.26C71.5551 10.14 71.7351 10.08 71.9084 10.08H73.1484C73.0551 10.16 72.9351 10.2533 72.7884 10.36C72.6551 10.4533 72.5284 10.6 72.4084 10.8C72.0484 11.4133 71.7351 12.0067 71.4684 12.58C71.2018 13.14 70.9151 13.74 70.6084 14.38C70.4618 14.6867 70.3551 14.9667 70.2884 15.22C70.2218 15.4733 70.1884 15.6933 70.1884 15.88C70.1884 16.32 70.3351 16.54 70.6284 16.54C70.9484 16.54 71.3351 16.28 71.7884 15.76C72.1618 15.32 72.5351 14.8 72.9084 14.2C73.2951 13.5867 73.6618 12.96 74.0084 12.32C74.3684 11.6667 74.6818 11.0667 74.9484 10.52C75.0951 10.2267 75.3551 10.08 75.7284 10.08H76.8284C76.4418 10.3467 76.1418 10.6933 75.9284 11.12C75.7284 11.5467 75.5018 12.0933 75.2484 12.76C74.9684 13.4933 74.7018 14.2533 74.4484 15.04C74.1951 15.8267 73.9151 16.6333 73.6084 17.46C74.2618 17.2333 74.8084 16.94 75.2484 16.58C75.6884 16.22 76.0751 15.76 76.4084 15.2C76.7551 14.6267 77.1018 13.94 77.4484 13.14C77.6084 13.14 77.6884 13.2 77.6884 13.32C77.3951 13.9333 77.1284 14.4733 76.8884 14.94C76.6484 15.4067 76.3818 15.82 76.0884 16.18C75.7951 16.5267 75.4284 16.8467 74.9884 17.14C74.5484 17.4467 73.9818 17.74 73.2884 18.02C72.9684 18.5933 72.6018 19.1867 72.1884 19.8C71.7884 20.4267 71.3284 21.0067 70.8084 21.54C70.3018 22.0867 69.7351 22.5267 69.1084 22.86C68.4951 23.2067 67.8151 23.38 67.0684 23.38ZM66.5884 22.98C67.0284 22.98 67.4818 22.8467 67.9484 22.58C68.4151 22.3133 68.8684 21.9733 69.3084 21.56C69.7484 21.16 70.1484 20.7467 70.5084 20.32C70.8818 19.9067 71.1818 19.54 71.4084 19.22C71.4751 19.1267 71.5484 19.0067 71.6284 18.86C71.7084 18.7133 71.7884 18.5733 71.8684 18.44C71.2151 18.6133 70.4951 18.8 69.7084 19C68.9351 19.2133 68.2618 19.4467 67.6884 19.7C67.0484 19.9667 66.5484 20.3467 66.1884 20.84C65.8151 21.3333 65.6284 21.7733 65.6284 22.16C65.6284 22.4 65.7084 22.5933 65.8684 22.74C66.0151 22.9 66.2551 22.98 66.5884 22.98ZM85.8291 24.64C84.5624 24.64 83.4157 24.4267 82.3891 24C81.3757 23.5733 80.5757 22.9533 79.9891 22.14C79.3891 21.3267 79.0891 20.3467 79.0891 19.2C79.0891 18.1333 79.2957 17.26 79.7091 16.58C80.1224 15.8867 80.5757 15.3667 81.0691 15.02C81.3491 14.82 81.6091 14.68 81.8491 14.6C82.0891 14.5067 82.2491 14.46 82.3291 14.46C82.4091 14.46 82.4491 14.4933 82.4491 14.56C82.4491 14.6267 82.4157 14.68 82.3491 14.72C81.6557 15.1333 81.1224 15.72 80.7491 16.48C80.3891 17.24 80.2091 18.0733 80.2091 18.98C80.2091 20.02 80.4491 20.92 80.9291 21.68C81.4091 22.4533 82.0757 23.0467 82.9291 23.46C83.7824 23.8733 84.7691 24.08 85.8891 24.08C87.7824 24.08 89.5891 23.3333 91.3091 21.84C93.0291 20.3467 94.6891 18.2667 96.2891 15.6C96.8891 14.5733 97.4557 13.5133 97.9891 12.42C98.5224 11.3267 99.0291 10.2467 99.5091 9.18C99.9891 8.14 100.442 7.20667 100.869 6.38C101.309 5.54 101.689 4.83333 102.009 4.26C102.342 3.68667 102.582 3.28667 102.729 3.06C99.3557 3.51333 96.7424 4.23333 94.8891 5.22C93.0491 6.20667 92.1291 7.47333 92.1291 9.02C92.1291 9.82 92.3357 10.42 92.7491 10.82C93.1624 11.2067 93.6357 11.4 94.1691 11.4C94.6891 11.4 95.2091 11.2333 95.7291 10.9C96.2624 10.5667 96.7024 10.1067 97.0491 9.52C97.4091 8.92 97.5891 8.22667 97.5891 7.44C97.5891 7.05333 97.4691 6.74 97.2291 6.5C97.2291 6.36667 97.2957 6.3 97.4291 6.3C97.5891 6.3 97.7291 6.42 97.8491 6.66C97.9824 6.9 98.0491 7.2 98.0491 7.56C98.0491 8.45333 97.8357 9.22667 97.4091 9.88C96.9957 10.52 96.4624 11.0133 95.8091 11.36C95.1691 11.7067 94.5091 11.88 93.8291 11.88C93.3091 11.88 92.8157 11.7667 92.3491 11.54C91.8824 11.3133 91.4957 10.9667 91.1891 10.5C90.8957 10.0333 90.7491 9.45333 90.7491 8.76C90.7491 7.85333 91.0491 7.06667 91.6491 6.4C92.2624 5.72 93.1157 5.14 94.2091 4.66C95.3157 4.18 96.6157 3.76667 98.1091 3.42C99.6157 3.07333 101.269 2.77333 103.069 2.52C103.442 2 103.782 1.59333 104.089 1.3C104.409 1.00667 104.756 0.859999 105.129 0.859999C105.342 0.859999 105.509 0.913333 105.629 1.02C105.762 1.12667 105.829 1.28667 105.829 1.5C105.829 1.80667 105.702 2.06 105.449 2.26C105.196 2.44667 104.876 2.6 104.489 2.72C104.102 2.82667 103.716 2.91333 103.329 2.98C102.836 3.83333 102.402 4.71333 102.029 5.62C101.669 6.51333 101.329 7.43333 101.009 8.38C100.702 9.31333 100.369 10.2733 100.009 11.26C99.6624 12.2333 99.2491 13.2333 98.7691 14.26C97.7691 16.38 96.6157 18.2133 95.3091 19.76C94.0024 21.32 92.5557 22.52 90.9691 23.36C89.3824 24.2133 87.6691 24.64 85.8291 24.64ZM103.689 2.48C104.236 2.38667 104.602 2.27333 104.789 2.14C104.976 1.99333 105.069 1.86 105.069 1.74C105.069 1.58 104.989 1.5 104.829 1.5C104.682 1.5 104.502 1.61333 104.289 1.84C104.089 2.05333 103.889 2.26667 103.689 2.48ZM102.103 17C101.556 17 101.149 16.8067 100.883 16.42C100.629 16.02 100.503 15.54 100.503 14.98C100.503 14.46 100.603 13.92 100.803 13.36C101.016 12.7467 101.309 12.1867 101.683 11.68C102.069 11.1733 102.489 10.7667 102.943 10.46C103.409 10.14 103.869 9.98 104.323 9.98C104.869 9.98 105.269 10.1667 105.523 10.54C105.789 10.9133 105.923 11.3867 105.923 11.96C105.923 12.36 105.856 12.78 105.723 13.22C105.589 13.66 105.409 14.0933 105.183 14.52C105.356 14.6933 105.603 14.78 105.923 14.78C106.296 14.78 106.616 14.66 106.883 14.42C107.149 14.18 107.409 13.7533 107.663 13.14C107.823 13.14 107.903 13.2 107.903 13.32C107.649 13.9333 107.356 14.3867 107.023 14.68C106.703 14.96 106.289 15.0933 105.783 15.08C105.476 15.08 105.223 14.9933 105.023 14.82C104.649 15.4333 104.203 15.9533 103.683 16.38C103.176 16.7933 102.649 17 102.103 17ZM102.383 16.56C102.689 16.56 102.996 16.4333 103.303 16.18C103.609 15.9133 103.889 15.6133 104.143 15.28C104.396 14.9467 104.576 14.66 104.683 14.42C104.469 14.0333 104.343 13.7467 104.303 13.56C104.276 13.36 104.263 13.2133 104.263 13.12C104.263 12.8667 104.329 12.6733 104.463 12.54C104.596 12.4067 104.729 12.34 104.863 12.34C105.049 12.34 105.209 12.42 105.343 12.58C105.369 12.4333 105.389 12.3 105.403 12.18C105.416 12.0467 105.423 11.92 105.423 11.8C105.423 11.4533 105.356 11.1733 105.223 10.96C105.103 10.7333 104.909 10.62 104.643 10.62C104.363 10.62 104.069 10.74 103.763 10.98C103.456 11.22 103.163 11.54 102.883 11.94C102.616 12.34 102.383 12.7867 102.183 13.28C102.009 13.6933 101.876 14.0867 101.783 14.46C101.689 14.82 101.643 15.1533 101.643 15.46C101.643 15.7933 101.703 16.06 101.823 16.26C101.943 16.46 102.129 16.56 102.383 16.56ZM104.9 23.38C104.207 23.38 103.714 23.24 103.42 22.96C103.127 22.6933 102.98 22.3733 102.98 22C102.98 21.4267 103.194 20.8933 103.62 20.4C104.034 19.92 104.547 19.5333 105.16 19.24C105.854 18.92 106.64 18.66 107.52 18.46C108.414 18.26 109.267 18.04 110.08 17.8C110.334 17.36 110.567 16.86 110.78 16.3C110.994 15.7267 111.187 15.1733 111.36 14.64C111.534 14.0933 111.674 13.6467 111.78 13.3C111.62 13.5933 111.414 13.9533 111.16 14.38C110.92 14.7933 110.647 15.2 110.34 15.6C110.034 16 109.7 16.3333 109.34 16.6C108.994 16.8667 108.627 17 108.24 17C108.094 17 107.914 16.9667 107.7 16.9C107.5 16.8333 107.32 16.7133 107.16 16.54C107.014 16.3533 106.94 16.08 106.94 15.72C106.94 15.3733 107.047 14.9933 107.26 14.58C107.474 14.1533 107.687 13.7333 107.9 13.32C107.834 13.32 107.774 13.3133 107.72 13.3C107.68 13.2867 107.66 13.2333 107.66 13.14C107.7 13.06 107.78 12.8867 107.9 12.62C108.02 12.3533 108.154 12.06 108.3 11.74C108.46 11.42 108.6 11.14 108.72 10.9C108.867 10.5933 109.027 10.38 109.2 10.26C109.387 10.14 109.567 10.08 109.74 10.08H110.98C110.887 10.16 110.767 10.2533 110.62 10.36C110.487 10.4533 110.36 10.6 110.24 10.8C109.88 11.4133 109.567 12.0067 109.3 12.58C109.034 13.14 108.747 13.74 108.44 14.38C108.294 14.6867 108.187 14.9667 108.12 15.22C108.054 15.4733 108.02 15.6933 108.02 15.88C108.02 16.32 108.167 16.54 108.46 16.54C108.78 16.54 109.167 16.28 109.62 15.76C109.994 15.32 110.367 14.8 110.74 14.2C111.127 13.5867 111.494 12.96 111.84 12.32C112.2 11.6667 112.514 11.0667 112.78 10.52C112.927 10.2267 113.187 10.08 113.56 10.08H114.66C114.274 10.3467 113.974 10.6933 113.76 11.12C113.56 11.5467 113.334 12.0933 113.08 12.76C112.8 13.4933 112.534 14.2533 112.28 15.04C112.027 15.8267 111.747 16.6333 111.44 17.46C112.094 17.2333 112.64 16.94 113.08 16.58C113.52 16.22 113.907 15.76 114.24 15.2C114.587 14.6267 114.934 13.94 115.28 13.14C115.44 13.14 115.52 13.2 115.52 13.32C115.227 13.9333 114.96 14.4733 114.72 14.94C114.48 15.4067 114.214 15.82 113.92 16.18C113.627 16.5267 113.26 16.8467 112.82 17.14C112.38 17.4467 111.814 17.74 111.12 18.02C110.8 18.5933 110.434 19.1867 110.02 19.8C109.62 20.4267 109.16 21.0067 108.64 21.54C108.134 22.0867 107.567 22.5267 106.94 22.86C106.327 23.2067 105.647 23.38 104.9 23.38ZM104.42 22.98C104.86 22.98 105.314 22.8467 105.78 22.58C106.247 22.3133 106.7 21.9733 107.14 21.56C107.58 21.16 107.98 20.7467 108.34 20.32C108.714 19.9067 109.014 19.54 109.24 19.22C109.307 19.1267 109.38 19.0067 109.46 18.86C109.54 18.7133 109.62 18.5733 109.7 18.44C109.047 18.6133 108.327 18.8 107.54 19C106.767 19.2133 106.094 19.4467 105.52 19.7C104.88 19.9667 104.38 20.3467 104.02 20.84C103.647 21.3333 103.46 21.7733 103.46 22.16C103.46 22.4 103.54 22.5933 103.7 22.74C103.847 22.9 104.087 22.98 104.42 22.98ZM116.718 17.08C116.224 17.08 115.778 16.92 115.378 16.6C114.991 16.28 114.798 15.7933 114.798 15.14C114.798 14.5933 114.918 14.0133 115.158 13.4C115.411 12.7867 115.738 12.2133 116.138 11.68C116.551 11.1333 117.004 10.6933 117.498 10.36C118.004 10.0133 118.511 9.84 119.018 9.84C119.271 9.84 119.518 9.91333 119.758 10.06C119.998 10.2067 120.118 10.46 120.118 10.82C120.118 11.1533 119.991 11.52 119.738 11.92C119.484 12.32 119.124 12.6933 118.658 13.04C118.458 13.1867 118.204 13.3267 117.898 13.46C117.591 13.5933 117.284 13.7067 116.978 13.8C116.671 13.88 116.418 13.92 116.218 13.92C116.151 14.08 116.084 14.2933 116.018 14.56C115.964 14.8267 115.938 15.1 115.938 15.38C115.938 15.7133 116.004 16.0133 116.138 16.28C116.271 16.5467 116.518 16.68 116.878 16.68C117.318 16.68 117.724 16.5533 118.098 16.3C118.484 16.0467 118.824 15.7267 119.118 15.34C119.424 14.9533 119.684 14.56 119.898 14.16C120.111 13.76 120.278 13.42 120.398 13.14C120.558 13.14 120.638 13.2 120.638 13.32C120.464 13.6933 120.264 14.1 120.038 14.54C119.824 14.98 119.564 15.3933 119.258 15.78C118.964 16.1533 118.604 16.4667 118.178 16.72C117.764 16.96 117.278 17.08 116.718 17.08ZM116.358 13.56C116.544 13.56 116.858 13.4933 117.298 13.36C117.738 13.2133 118.138 12.9867 118.498 12.68C118.844 12.3733 119.111 12.04 119.298 11.68C119.484 11.3067 119.578 10.9933 119.578 10.74C119.578 10.4467 119.471 10.3 119.258 10.3C119.098 10.3 118.878 10.4067 118.598 10.62C118.318 10.8333 117.971 11.1933 117.558 11.7C117.304 12.02 117.064 12.3667 116.838 12.74C116.611 13.1133 116.451 13.3867 116.358 13.56ZM120.415 13.08C120.522 12.8533 120.662 12.4933 120.835 12C121.008 11.4933 121.188 10.9333 121.375 10.32C121.562 9.70667 121.702 9.12667 121.795 8.58C121.835 8.36667 121.908 8.21333 122.015 8.12C122.122 8.01333 122.235 7.96 122.355 7.96C122.528 7.96 122.688 8.04667 122.835 8.22C122.982 8.38 123.055 8.61333 123.055 8.92C123.055 9.29333 122.942 9.61333 122.715 9.88C122.502 10.1467 122.235 10.4 121.915 10.64C122.048 10.6533 122.188 10.6667 122.335 10.68C122.482 10.68 122.642 10.68 122.815 10.68C123.442 10.68 124.062 10.64 124.675 10.56C124.702 10.64 124.715 10.7 124.715 10.74C124.715 10.9133 124.662 11.1333 124.555 11.4C124.462 11.6667 124.362 11.9067 124.255 12.12C124.202 12.24 124.095 12.46 123.935 12.78C123.775 13.0867 123.602 13.44 123.415 13.84C123.228 14.2267 123.068 14.6133 122.935 15C122.815 15.3733 122.755 15.6933 122.755 15.96C122.755 16.3067 122.888 16.48 123.155 16.48C123.408 16.48 123.762 16.1867 124.215 15.6C124.668 15 125.122 14.18 125.575 13.14C125.735 13.14 125.815 13.2 125.815 13.32C125.668 13.68 125.482 14.0733 125.255 14.5C125.042 14.9267 124.802 15.3333 124.535 15.72C124.268 16.0933 123.982 16.4067 123.675 16.66C123.368 16.9 123.048 17.02 122.715 17.02C122.462 17.02 122.208 16.92 121.955 16.72C121.702 16.5067 121.575 16.1667 121.575 15.7C121.575 15.2867 121.655 14.8867 121.815 14.5C121.975 14.1 122.155 13.7267 122.355 13.38C122.555 13.0333 122.735 12.7267 122.895 12.46C123.055 12.1933 123.135 11.98 123.135 11.82C123.135 11.58 122.982 11.4067 122.675 11.3C122.382 11.1933 121.995 11.1333 121.515 11.12C121.275 11.7333 121.095 12.1867 120.975 12.48C120.855 12.7733 120.742 13.0533 120.635 13.32C120.422 13.32 120.348 13.24 120.415 13.08ZM126.131 17C125.637 17 125.291 16.86 125.091 16.58C124.891 16.2867 124.791 15.9533 124.791 15.58C124.791 15.38 124.811 15.18 124.851 14.98C124.904 14.7667 124.964 14.5733 125.031 14.4L126.371 10.98C126.411 10.8733 126.431 10.78 126.431 10.7C126.431 10.5667 126.397 10.4533 126.331 10.36C126.264 10.2533 126.217 10.18 126.191 10.14L127.291 10.1C127.491 10.0867 127.631 10.1133 127.711 10.18C127.804 10.2333 127.851 10.3 127.851 10.38C127.851 10.46 127.804 10.6067 127.711 10.82C127.577 11.14 127.397 11.54 127.171 12.02C126.944 12.5 126.717 12.9933 126.491 13.5C126.277 14.0067 126.091 14.48 125.931 14.92C125.784 15.36 125.711 15.7 125.711 15.94C125.711 16.1133 125.751 16.26 125.831 16.38C125.924 16.5 126.077 16.56 126.291 16.56C126.571 16.56 126.844 16.4533 127.111 16.24C127.391 16.0133 127.651 15.7267 127.891 15.38C128.131 15.0333 128.351 14.66 128.551 14.26C128.764 13.86 128.944 13.4867 129.091 13.14C129.251 13.14 129.331 13.2 129.331 13.32C129.197 13.6533 129.024 14.0333 128.811 14.46C128.597 14.8867 128.351 15.2933 128.071 15.68C127.804 16.0533 127.504 16.3667 127.171 16.62C126.851 16.8733 126.504 17 126.131 17ZM127.911 8.86C127.737 8.86 127.584 8.79333 127.451 8.66C127.331 8.52667 127.271 8.36667 127.271 8.18C127.271 7.95333 127.364 7.75333 127.551 7.58C127.737 7.39333 127.944 7.3 128.171 7.3C128.357 7.3 128.517 7.36 128.651 7.48C128.784 7.6 128.851 7.75333 128.851 7.94C128.851 8.18 128.757 8.39333 128.571 8.58C128.384 8.76667 128.164 8.86 127.911 8.86ZM133.426 17.06C133.12 17.06 132.846 16.9733 132.606 16.8C132.38 16.6267 132.266 16.2733 132.266 15.74C132.266 15.5133 132.28 15.3 132.306 15.1C132.346 14.9 132.393 14.6867 132.446 14.46C132.326 14.66 132.16 14.9067 131.946 15.2C131.733 15.4933 131.493 15.78 131.226 16.06C130.973 16.34 130.706 16.5733 130.426 16.76C130.16 16.9467 129.906 17.04 129.666 17.04C129.32 17.04 129.04 16.8867 128.826 16.58C128.613 16.26 128.506 15.8467 128.506 15.34C128.506 14.7933 128.633 14.2067 128.886 13.58C129.14 12.9533 129.486 12.3533 129.926 11.78C130.366 11.2067 130.873 10.74 131.446 10.38C132.02 10.02 132.62 9.84 133.246 9.84C133.553 9.84 133.846 9.89333 134.126 10C134.406 10.0933 134.653 10.2533 134.866 10.48C134.96 10.5733 135.006 10.68 135.006 10.8C135.006 10.88 134.973 10.9467 134.906 11C134.84 11.0533 134.753 11.0667 134.646 11.04C134.5 10.5733 134.186 10.34 133.706 10.34C133.48 10.34 133.22 10.4133 132.926 10.56C132.566 10.7467 132.18 11.0467 131.766 11.46C131.366 11.86 130.986 12.32 130.626 12.84C130.28 13.3467 129.993 13.86 129.766 14.38C129.54 14.9 129.426 15.3733 129.426 15.8C129.426 16.24 129.593 16.46 129.926 16.46C130.22 16.46 130.52 16.32 130.826 16.04C131.146 15.76 131.446 15.4133 131.726 15C132.02 14.5733 132.286 14.1533 132.526 13.74C132.766 13.3267 132.953 12.9933 133.086 12.74C133.286 12.38 133.473 12.08 133.646 11.84C133.82 11.6 134.066 11.48 134.386 11.48C134.533 11.48 134.68 11.5 134.826 11.54C134.973 11.58 135.126 11.5867 135.286 11.56C134.886 11.96 134.533 12.4333 134.226 12.98C133.933 13.5267 133.706 14.0667 133.546 14.6C133.386 15.12 133.306 15.56 133.306 15.92C133.306 16.32 133.44 16.52 133.706 16.52C133.92 16.52 134.146 16.4 134.386 16.16C134.64 15.92 134.88 15.62 135.106 15.26C135.346 14.8867 135.566 14.5133 135.766 14.14C135.966 13.7533 136.126 13.42 136.246 13.14C136.313 13.14 136.366 13.1467 136.406 13.16C136.46 13.1733 136.486 13.2267 136.486 13.32C136.473 13.3733 136.446 13.4333 136.406 13.5C136.38 13.5533 136.333 13.6533 136.266 13.8C136.16 14.0133 136.013 14.3 135.826 14.66C135.64 15.02 135.42 15.3867 135.166 15.76C134.913 16.12 134.64 16.4267 134.346 16.68C134.053 16.9333 133.746 17.06 133.426 17.06Z" fill="white"/>
</g>
<g filter="url(#filter1_d_111_7)">
<path d="M9.488 35.216C8.72 35.216 8.10133 34.9493 7.632 34.416C7.16267 33.8613 6.928 33.1253 6.928 32.208C6.928 31.0347 7.26933 29.936 7.952 28.912C8.63467 27.888 9.47733 27.1307 10.48 26.64L10.8 27.184C10.3733 27.5253 9.98933 27.9413 9.648 28.432C9.328 28.9227 9.072 29.52 8.88 30.224L9.552 30.416C10.2347 30.6293 10.768 30.9493 11.152 31.376C11.5573 31.8027 11.76 32.3253 11.76 32.944C11.76 33.6267 11.536 34.1813 11.088 34.608C10.64 35.0133 10.1067 35.216 9.488 35.216ZM16.208 35.216C15.44 35.216 14.8213 34.9493 14.352 34.416C13.8827 33.8613 13.648 33.1253 13.648 32.208C13.648 31.0347 13.9893 29.936 14.672 28.912C15.3547 27.888 16.1973 27.1307 17.2 26.64L17.52 27.184C17.0933 27.5253 16.7093 27.9413 16.368 28.432C16.048 28.9227 15.792 29.52 15.6 30.224L16.272 30.416C16.9547 30.6293 17.488 30.9493 17.872 31.376C18.2773 31.8027 18.48 32.3253 18.48 32.944C18.48 33.6267 18.256 34.1813 17.808 34.608C17.36 35.0133 16.8267 35.216 16.208 35.216ZM29.845 50.544C28.5437 50.544 27.2957 50.3093 26.101 49.84C24.9063 49.3707 23.829 48.6773 22.869 47.76C21.9303 46.8213 21.1837 45.6587 20.629 44.272C20.0743 42.8853 19.797 41.264 19.797 39.408C19.797 37.5947 20.0743 35.9947 20.629 34.608C21.1837 33.2213 21.9303 32.0587 22.869 31.12C23.829 30.1813 24.9063 29.4773 26.101 29.008C27.317 28.5173 28.565 28.272 29.845 28.272C31.125 28.272 32.3623 28.5067 33.557 28.976C34.773 29.4453 35.8503 30.1493 36.789 31.088C37.7277 32.0053 38.4743 33.1573 39.029 34.544C39.5837 35.9307 39.861 37.552 39.861 39.408C39.861 41.2213 39.5837 42.8213 39.029 44.208C38.4743 45.5947 37.7277 46.7573 36.789 47.696C35.8503 48.6347 34.7837 49.3493 33.589 49.84C32.3943 50.3093 31.1463 50.544 29.845 50.544ZM29.845 49.584C31.061 49.584 32.0423 49.2747 32.789 48.656C33.5357 48.016 34.0797 46.9493 34.421 45.456C34.7623 43.9627 34.933 41.9467 34.933 39.408C34.933 36.8693 34.7623 34.864 34.421 33.392C34.0797 31.8987 33.5357 30.8427 32.789 30.224C32.0423 29.584 31.061 29.264 29.845 29.264C28.6503 29.264 27.669 29.584 26.901 30.224C26.1543 30.8427 25.6103 31.8987 25.269 33.392C24.9277 34.864 24.757 36.8693 24.757 39.408C24.757 41.9467 24.9277 43.9627 25.269 45.456C25.6103 46.9493 26.1543 48.016 26.901 48.656C27.669 49.2747 28.6503 49.584 29.845 49.584ZM40.5783 50V49.296L41.2183 49.104C41.6236 48.976 41.9009 48.7733 42.0503 48.496C42.1996 48.1973 42.2743 47.8133 42.2743 47.344V31.504C42.2743 31.0773 42.2209 30.736 42.1143 30.48C42.0076 30.2027 41.7409 29.9893 41.3143 29.84L40.5783 29.552V28.848H46.6903L52.7063 44.496L58.3703 28.848H64.6103V29.552L64.0983 29.712C63.6929 29.84 63.4156 30.0427 63.2663 30.32C63.1169 30.576 63.0423 30.9173 63.0423 31.344C63.0209 32.5813 63.0103 33.8187 63.0103 35.056C63.0103 36.272 63.0103 37.5093 63.0103 38.768V40.08C63.0103 41.3173 63.0103 42.5547 63.0103 43.792C63.0103 45.0293 63.0209 46.256 63.0423 47.472C63.0423 47.92 63.0956 48.2613 63.2023 48.496C63.3089 48.7307 63.5649 48.9227 63.9703 49.072L64.6103 49.296V50H56.8343V49.296L57.5382 49.072C57.9436 48.9227 58.1889 48.7307 58.2743 48.496C58.3809 48.24 58.4343 47.8987 58.4343 47.472V40.528L58.4983 31.952L51.9703 50H50.1783L43.2983 32.144L43.4263 39.44V47.376C43.4263 47.8453 43.4903 48.2187 43.6183 48.496C43.7463 48.7733 44.0129 48.9653 44.4183 49.072L45.0583 49.296V50H40.5783ZM66.0798 50V49.328L66.7198 49.104C67.1038 48.9973 67.3704 48.816 67.5198 48.56C67.6691 48.2827 67.7544 47.9093 67.7758 47.44V31.344C67.7544 30.896 67.6798 30.5547 67.5518 30.32C67.4238 30.064 67.1571 29.872 66.7518 29.744L66.0798 29.52V28.848H81.3118L81.5358 33.968H80.6398L79.3598 31.088C79.1891 30.6827 78.9971 30.3733 78.7838 30.16C78.5704 29.9253 78.2504 29.808 77.8238 29.808H72.3838C72.3624 31.1307 72.3518 32.496 72.3518 33.904C72.3518 35.2907 72.3518 36.8587 72.3518 38.608H75.5198C75.9464 38.608 76.2664 38.5013 76.4798 38.288C76.7144 38.0533 76.9278 37.744 77.1198 37.36L77.6638 36.144H78.3678V42.064H77.6638L77.0878 40.848C76.9171 40.464 76.7251 40.1547 76.5118 39.92C76.2984 39.6853 75.9784 39.568 75.5518 39.568H72.3518C72.3518 41.104 72.3518 42.4267 72.3518 43.536C72.3518 44.6453 72.3518 45.6373 72.3518 46.512C72.3731 47.3653 72.3838 48.208 72.3838 49.04H78.5278C78.9544 49.04 79.2851 48.9333 79.5198 48.72C79.7544 48.4853 79.9464 48.1653 80.0958 47.76L81.2798 44.88H82.1758L81.9518 50H66.0798ZM94.398 50.544C92.222 50.544 90.3127 50.0853 88.67 49.168C87.0273 48.2507 85.7367 46.96 84.798 45.296C83.8807 43.6107 83.422 41.6373 83.422 39.376C83.422 37.1573 83.87 35.216 84.766 33.552C85.6833 31.888 87.006 30.5973 88.734 29.68C90.462 28.7413 92.5313 28.272 94.942 28.272C96.094 28.272 97.1607 28.4 98.142 28.656C99.1447 28.912 100.083 29.2853 100.958 29.776L101.086 34.352H100.222L98.622 31.12C98.366 30.608 98.1207 30.2347 97.886 30C97.6513 29.7653 97.342 29.5947 96.958 29.488C96.6807 29.3813 96.414 29.3173 96.158 29.296C95.902 29.2533 95.5713 29.232 95.166 29.232C93.822 29.232 92.638 29.584 91.614 30.288C90.59 30.9707 89.79 32.0587 89.214 33.552C88.6593 35.0453 88.382 36.9867 88.382 39.376C88.382 42.9813 88.9687 45.5947 90.142 47.216C91.3367 48.816 92.926 49.616 94.91 49.616C95.3793 49.616 95.7847 49.552 96.126 49.424C96.5313 49.36 96.8087 49.2 96.958 48.944C97.1073 48.6667 97.182 48.3253 97.182 47.92C97.182 47.0453 97.1713 46.096 97.15 45.072C97.15 44.0267 97.15 43.0773 97.15 42.224C97.15 41.392 96.7127 40.88 95.838 40.688L94.398 40.368V39.696H103.23V40.368L102.846 40.464C102.441 40.592 102.131 40.784 101.918 41.04C101.705 41.2747 101.598 41.6053 101.598 42.032C101.598 42.8853 101.587 43.76 101.566 44.656C101.566 45.5307 101.566 46.416 101.566 47.312V48.688C100.457 49.2853 99.326 49.744 98.174 50.064C97.0433 50.384 95.7847 50.544 94.398 50.544ZM103.13 50V49.328L103.994 49.072C104.442 48.944 104.784 48.752 105.018 48.496C105.274 48.24 105.477 47.888 105.626 47.44L112.09 28.752H114.746L121.178 47.568C121.349 48.0373 121.541 48.4 121.754 48.656C121.968 48.8907 122.309 49.0827 122.778 49.232L123.258 49.36V50H115.13V49.36L115.674 49.2C116.144 49.0507 116.421 48.816 116.506 48.496C116.613 48.176 116.592 47.7813 116.442 47.312L115.098 43.184H108.026L106.65 47.248C106.501 47.7173 106.458 48.1013 106.522 48.4C106.586 48.6987 106.853 48.9333 107.322 49.104L108.026 49.328V50H103.13ZM108.346 42.256H114.81L111.674 32.624L108.346 42.256ZM123.392 26.608C124.16 26.608 124.779 26.8853 125.248 27.44C125.717 27.9733 125.952 28.6987 125.952 29.616C125.952 30.7893 125.611 31.888 124.928 32.912C124.245 33.936 123.403 34.6933 122.4 35.184L122.08 34.64C122.507 34.2987 122.88 33.8827 123.2 33.392C123.541 32.9013 123.808 32.304 124 31.6L123.328 31.408C122.645 31.1947 122.101 30.8747 121.696 30.448C121.312 30.0213 121.12 29.4987 121.12 28.88C121.12 28.1973 121.344 27.6533 121.792 27.248C122.24 26.8213 122.773 26.608 123.392 26.608ZM130.112 26.608C130.88 26.608 131.499 26.8853 131.968 27.44C132.437 27.9733 132.672 28.6987 132.672 29.616C132.672 30.7893 132.331 31.888 131.648 32.912C130.965 33.936 130.123 34.6933 129.12 35.184L128.8 34.64C129.227 34.2987 129.6 33.8827 129.92 33.392C130.261 32.9013 130.528 32.304 130.72 31.6L130.048 31.408C129.365 31.1947 128.821 30.8747 128.416 30.448C128.032 30.0213 127.84 29.4987 127.84 28.88C127.84 28.1973 128.064 27.6533 128.512 27.248C128.96 26.8213 129.493 26.608 130.112 26.608Z" fill="white"/>
</g>
<defs>
<filter id="filter0_d_111_7" x="0.379883" y="0.860107" width="140.106" height="31.7798" filterUnits="userSpaceOnUse" color-interpolation-filters="sRGB">
<feFlood flood-opacity="0" result="BackgroundImageFix"/>
<feColorMatrix in="SourceAlpha" type="matrix" values="0 0 0 0 0 0 0 0 0 0 0 0 0 0 0 0 0 0 127 0" result="hardAlpha"/>
<feOffset dy="4"/>
<feGaussianBlur stdDeviation="2"/>
<feComposite in2="hardAlpha" operator="out"/>
<feColorMatrix type="matrix" values="0 0 0 0 0 0 0 0 0 0 0 0 0 0 0 0 0 0 0.25 0"/>
<feBlend mode="normal" in2="BackgroundImageFix" result="effect1_dropShadow_111_7"/>
<feBlend mode="normal" in="SourceGraphic" in2="effect1_dropShadow_111_7" result="shape"/>
</filter>
<filter id="filter1_d_111_7" x="2.92798" y="26.6079" width="133.744" height="31.936" filterUnits="userSpaceOnUse" color-interpolation-filters="sRGB">
<feFlood flood-opacity="0" result="BackgroundImageFix"/>
<feColorMatrix in="SourceAlpha" type="matrix" values="0 0 0 0 0 0 0 0 0 0 0 0 0 0 0 0 0 0 127 0" result="hardAlpha"/>
<feOffset dy="4"/>
<feGaussianBlur stdDeviation="2"/>
<feComposite in2="hardAlpha" operator="out"/>
<feColorMatrix type="matrix" values="0 0 0 0 0 0 0 0 0 0 0 0 0 0 0 0 0 0 0.25 0"/>
<feBlend mode="normal" in2="BackgroundImageFix" result="effect1_dropShadow_111_7"/>
<feBlend mode="normal" in="SourceGraphic" in2="effect1_dropShadow_111_7" result="shape"/>
</filter>
</defs>
</svg>
