<svg width="133" height="61" viewBox="0 0 133 61" fill="none" xmlns="http://www.w3.org/2000/svg">
<path d="M17.88 17.84C17.5067 17.84 17.1333 17.7533 16.76 17.58C16.4 17.4067 16.06 17.1533 15.74 16.82C15.2733 16.34 14.8667 15.7667 14.52 15.1C14.1867 14.42 13.9 13.7267 13.66 13.02C13.42 12.3 13.2333 11.6467 13.1 11.06C12.9667 10.46 12.8733 10 12.82 9.68C12.3267 10.6267 11.8133 11.5667 11.28 12.5C10.76 13.42 10.0933 14.3267 9.28 15.22C8.50667 16.06 7.66 16.6933 6.74 17.12C5.82 17.56 4.86667 17.78 3.88 17.78C3.57333 17.78 3.26 17.76 2.94 17.72C2.06 17.6133 1.41333 17.36 1 16.96C0.586667 16.56 0.38 16.1333 0.38 15.68C0.38 15.1867 0.6 14.74 1.04 14.34C1.48 13.94 2.10667 13.74 2.92 13.74C3.18667 13.74 3.47333 13.7667 3.78 13.82C4.08667 13.8733 4.40667 13.96 4.74 14.08C4.88667 14.1333 4.96 14.1933 4.96 14.26C4.96 14.3133 4.90667 14.34 4.8 14.34C4.73333 14.34 4.68 14.3333 4.64 14.32C4.2 14.16 3.80667 14.08 3.46 14.08C2.9 14.08 2.47333 14.2467 2.18 14.58C1.88667 14.9 1.74 15.2533 1.74 15.64C1.74 16.0133 1.9 16.36 2.22 16.68C2.54 17 3.03333 17.16 3.7 17.16C4.54 17.16 5.31333 16.9667 6.02 16.58C6.72667 16.18 7.38667 15.64 8 14.96C8.61333 14.2667 9.2 13.4867 9.76 12.62C10.32 11.74 10.8667 10.8267 11.4 9.88C12.2933 8.29333 13.1 6.85333 13.82 5.56C14.5533 4.25333 15.3267 3.14667 16.14 2.24C15.78 2.2 15.4133 2.17333 15.04 2.16C14.6667 2.14667 14.2867 2.14 13.9 2.14C13.06 2.14 12.1867 2.18667 11.28 2.28C10.3867 2.36 9.52 2.49333 8.68 2.68C7.54667 2.92 6.57333 3.28 5.76 3.76C4.94667 4.22667 4.3 4.75333 3.82 5.34C3.35333 5.91333 3.06 6.49333 2.94 7.08C2.9 7.29333 2.88 7.5 2.88 7.7C2.88 8.38 3.10667 8.90667 3.56 9.28C4.01333 9.65333 4.53333 9.84 5.12 9.84C5.49333 9.84 5.86667 9.76667 6.24 9.62C6.62667 9.46 6.97333 9.21333 7.28 8.88C7.53333 8.61333 7.72 8.36667 7.84 8.14C7.96 7.9 8.02667 7.72 8.04 7.6C8.05333 7.41333 8.09333 7.32 8.16 7.32C8.2 7.32 8.23333 7.35333 8.26 7.42C8.3 7.48667 8.31333 7.55333 8.3 7.62C8.24667 7.92667 8.15333 8.22667 8.02 8.52C7.88667 8.81333 7.72667 9.06 7.54 9.26C7.16667 9.64667 6.74 9.93333 6.26 10.12C5.78 10.3067 5.32 10.4 4.88 10.4C4.36 10.4 3.86667 10.2867 3.4 10.06C2.94667 9.83333 2.58 9.50667 2.3 9.08C2.02 8.64 1.88 8.1 1.88 7.46C1.88 6.71333 2.14 5.95333 2.66 5.18C3.18 4.39333 3.96 3.7 5 3.1C6.05333 2.5 7.36 2.08667 8.92 1.86C9.70667 1.75333 10.4667 1.67333 11.2 1.62C11.9467 1.55333 12.6667 1.52 13.36 1.52C13.92 1.52 14.4667 1.54 15 1.58C15.5333 1.62 16.06 1.67333 16.58 1.74C16.9267 1.38 17.16 1.2 17.28 1.2C17.3733 1.2 17.42 1.27333 17.42 1.42C17.42 1.47333 17.4133 1.54 17.4 1.62C17.3867 1.7 17.3667 1.78 17.34 1.86C17.7 1.91333 18.0467 1.97333 18.38 2.04C18.7267 2.09333 19.0333 2.16 19.3 2.24C20.3533 2.53333 21.12 2.92 21.6 3.4C22.0933 3.86667 22.34 4.37333 22.34 4.92C22.34 5.50667 22.0733 6.09333 21.54 6.68C21.02 7.26667 20.28 7.78667 19.32 8.24C18.3733 8.69333 17.26 9.02667 15.98 9.24C15.5667 9.30667 15.2 9.35333 14.88 9.38C14.5733 9.40667 14.3067 9.42667 14.08 9.44C14.1067 9.57333 14.1667 9.85333 14.26 10.28C14.3533 10.7067 14.4867 11.2133 14.66 11.8C14.8333 12.3733 15.0533 12.98 15.32 13.62C15.6 14.26 15.9333 14.8667 16.32 15.44C16.6267 15.8933 16.94 16.2667 17.26 16.56C17.58 16.8533 17.92 17 18.28 17C18.5067 17 18.74 16.94 18.98 16.82C19.2333 16.7 19.4933 16.5067 19.76 16.24C20.08 15.92 20.3733 15.56 20.64 15.16C20.9067 14.76 21.1333 14.38 21.32 14.02C21.5067 13.6467 21.6467 13.3533 21.74 13.14C21.82 13.14 21.88 13.1467 21.92 13.16C21.96 13.1733 21.98 13.2267 21.98 13.32C21.9267 13.4533 21.8333 13.6667 21.7 13.96C21.5667 14.24 21.4067 14.56 21.22 14.92C21.0467 15.2667 20.8533 15.6133 20.64 15.96C20.4267 16.3067 20.2133 16.6 20 16.84C19.6933 17.1733 19.3467 17.42 18.96 17.58C18.5867 17.7533 18.2267 17.84 17.88 17.84ZM13.24 8.9C13.6267 8.83333 14.04 8.78667 14.48 8.76C14.92 8.73333 15.3533 8.69333 15.78 8.64C16.4733 8.54667 17.1267 8.36667 17.74 8.1C18.3533 7.82 18.8933 7.48667 19.36 7.1C19.84 6.71333 20.2133 6.30667 20.48 5.88C20.7467 5.44 20.88 5.02 20.88 4.62C20.88 3.71333 20.2733 3.08667 19.06 2.74C18.82 2.67333 18.5067 2.60667 18.12 2.54C17.7467 2.47333 17.4067 2.41333 17.1 2.36C16.46 3.45333 15.8 4.52667 15.12 5.58C14.4533 6.63333 13.8267 7.74 13.24 8.9ZM23.1864 17.08C22.6931 17.08 22.2464 16.92 21.8464 16.6C21.4597 16.28 21.2664 15.7933 21.2664 15.14C21.2664 14.5933 21.3864 14.0133 21.6264 13.4C21.8797 12.7867 22.2064 12.2133 22.6064 11.68C23.0197 11.1333 23.4731 10.6933 23.9664 10.36C24.4731 10.0133 24.9797 9.84 25.4864 9.84C25.7397 9.84 25.9864 9.91333 26.2264 10.06C26.4664 10.2067 26.5864 10.46 26.5864 10.82C26.5864 11.1533 26.4597 11.52 26.2064 11.92C25.9531 12.32 25.5931 12.6933 25.1264 13.04C24.9264 13.1867 24.6731 13.3267 24.3664 13.46C24.0597 13.5933 23.7531 13.7067 23.4464 13.8C23.1397 13.88 22.8864 13.92 22.6864 13.92C22.6197 14.08 22.5531 14.2933 22.4864 14.56C22.4331 14.8267 22.4064 15.1 22.4064 15.38C22.4064 15.7133 22.4731 16.0133 22.6064 16.28C22.7397 16.5467 22.9864 16.68 23.3464 16.68C23.7864 16.68 24.1931 16.5533 24.5664 16.3C24.9531 16.0467 25.2931 15.7267 25.5864 15.34C25.8931 14.9533 26.1531 14.56 26.3664 14.16C26.5797 13.76 26.7464 13.42 26.8664 13.14C27.0264 13.14 27.1064 13.2 27.1064 13.32C26.9331 13.6933 26.7331 14.1 26.5064 14.54C26.2931 14.98 26.0331 15.3933 25.7264 15.78C25.4331 16.1533 25.0731 16.4667 24.6464 16.72C24.2331 16.96 23.7464 17.08 23.1864 17.08ZM22.8264 13.56C23.0131 13.56 23.3264 13.4933 23.7664 13.36C24.2064 13.2133 24.6064 12.9867 24.9664 12.68C25.3131 12.3733 25.5797 12.04 25.7664 11.68C25.9531 11.3067 26.0464 10.9933 26.0464 10.74C26.0464 10.4467 25.9397 10.3 25.7264 10.3C25.5664 10.3 25.3464 10.4067 25.0664 10.62C24.7864 10.8333 24.4397 11.1933 24.0264 11.7C23.7731 12.02 23.5331 12.3667 23.3064 12.74C23.0797 13.1133 22.9197 13.3867 22.8264 13.56ZM27.8036 17.06C27.3103 17.06 26.9436 16.9133 26.7036 16.62C26.4769 16.3133 26.3636 15.9533 26.3636 15.54C26.3636 15.1133 26.4236 14.6733 26.5436 14.22C26.6636 13.7667 26.7703 13.3867 26.8636 13.08C27.0769 12.3333 27.3436 11.54 27.6636 10.7C27.9969 9.84667 28.3569 9.01333 28.7436 8.2C29.1436 7.37333 29.5369 6.63333 29.9236 5.98C30.2303 5.46 30.5569 5.07333 30.9036 4.82C31.2636 4.55333 31.5769 4.42 31.8436 4.42C32.0569 4.42 32.2236 4.5 32.3436 4.66C32.4769 4.80667 32.5436 5.03333 32.5436 5.34C32.5436 5.55333 32.5036 5.80667 32.4236 6.1C32.3569 6.39333 32.2369 6.72667 32.0636 7.1C31.5969 8.14 31.0369 9.18 30.3836 10.22C29.7436 11.26 28.9303 12.2333 27.9436 13.14C27.7836 13.5133 27.6503 13.9133 27.5436 14.34C27.4369 14.7667 27.3836 15.1133 27.3836 15.38C27.3836 16.2067 27.6636 16.62 28.2236 16.62C28.6503 16.62 29.1236 16.3133 29.6436 15.7C30.1636 15.0733 30.6569 14.22 31.1236 13.14C31.1769 13.14 31.2303 13.1533 31.2836 13.18C31.3369 13.1933 31.3636 13.24 31.3636 13.32C31.2169 13.68 31.0303 14.08 30.8036 14.52C30.5903 14.9467 30.3369 15.3533 30.0436 15.74C29.7636 16.1267 29.4369 16.4467 29.0636 16.7C28.6903 16.94 28.2703 17.06 27.8036 17.06ZM28.1036 12.5C28.5836 12.0067 29.0503 11.44 29.5036 10.8C29.9569 10.1467 30.3769 9.47333 30.7636 8.78C31.1636 8.07333 31.4969 7.40667 31.7636 6.78C31.8569 6.58 31.9303 6.36 31.9836 6.12C32.0503 5.88 32.0836 5.68 32.0836 5.52C32.0836 5.33333 32.0369 5.24 31.9436 5.24C31.8903 5.24 31.8103 5.29333 31.7036 5.4C31.5969 5.49333 31.4569 5.66 31.2836 5.9C31.0303 6.23333 30.7503 6.68667 30.4436 7.26C30.1503 7.83333 29.8503 8.44667 29.5436 9.1C29.2369 9.75333 28.9569 10.3867 28.7036 11C28.4503 11.6 28.2503 12.1 28.1036 12.5ZM32.3214 17C31.7747 17 31.3681 16.8067 31.1014 16.42C30.8481 16.02 30.7214 15.54 30.7214 14.98C30.7214 14.46 30.8214 13.92 31.0214 13.36C31.2347 12.7467 31.5281 12.1867 31.9014 11.68C32.2881 11.1733 32.7081 10.7667 33.1614 10.46C33.6281 10.14 34.0881 9.98 34.5414 9.98C35.0881 9.98 35.4881 10.1667 35.7414 10.54C36.0081 10.9133 36.1414 11.3867 36.1414 11.96C36.1414 12.36 36.0747 12.78 35.9414 13.22C35.8081 13.66 35.6281 14.0933 35.4014 14.52C35.5747 14.6933 35.8214 14.78 36.1414 14.78C36.5147 14.78 36.8347 14.66 37.1014 14.42C37.3681 14.18 37.6281 13.7533 37.8814 13.14C38.0414 13.14 38.1214 13.2 38.1214 13.32C37.8681 13.9333 37.5747 14.3867 37.2414 14.68C36.9214 14.96 36.5081 15.0933 36.0014 15.08C35.6947 15.08 35.4414 14.9933 35.2414 14.82C34.8681 15.4333 34.4214 15.9533 33.9014 16.38C33.3947 16.7933 32.8681 17 32.3214 17ZM32.6014 16.56C32.9081 16.56 33.2147 16.4333 33.5214 16.18C33.8281 15.9133 34.1081 15.6133 34.3614 15.28C34.6147 14.9467 34.7947 14.66 34.9014 14.42C34.6881 14.0333 34.5614 13.7467 34.5214 13.56C34.4947 13.36 34.4814 13.2133 34.4814 13.12C34.4814 12.8667 34.5481 12.6733 34.6814 12.54C34.8147 12.4067 34.9481 12.34 35.0814 12.34C35.2681 12.34 35.4281 12.42 35.5614 12.58C35.5881 12.4333 35.6081 12.3 35.6214 12.18C35.6347 12.0467 35.6414 11.92 35.6414 11.8C35.6414 11.4533 35.5747 11.1733 35.4414 10.96C35.3214 10.7333 35.1281 10.62 34.8614 10.62C34.5814 10.62 34.2881 10.74 33.9814 10.98C33.6747 11.22 33.3814 11.54 33.1014 11.94C32.8347 12.34 32.6014 12.7867 32.4014 13.28C32.2281 13.6933 32.0947 14.0867 32.0014 14.46C31.9081 14.82 31.8614 15.1533 31.8614 15.46C31.8614 15.7933 31.9214 16.06 32.0414 16.26C32.1614 16.46 32.3481 16.56 32.6014 16.56ZM30.6592 23.38C29.9659 23.38 29.4792 23.24 29.1992 22.96C28.9059 22.6933 28.7592 22.3733 28.7592 22C28.7592 21.64 28.8592 21.28 29.0592 20.92C29.2459 20.5333 29.5059 20.2 29.8392 19.92C30.1726 19.6533 30.5392 19.4267 30.9392 19.24C31.6192 18.92 32.4059 18.66 33.2992 18.46C34.1792 18.26 35.0259 18.04 35.8392 17.8C35.9459 17.6133 36.0592 17.42 36.1792 17.22C36.2859 17.02 36.3859 16.8267 36.4792 16.64C36.7459 16.1067 36.9926 15.58 37.2192 15.06C37.4459 14.5267 37.7259 13.9533 38.0592 13.34C37.9392 13.34 37.8792 13.2733 37.8792 13.14L38.7592 11.12C38.7726 11.0933 38.7859 11.06 38.7992 11.02C38.8126 10.9667 38.8192 10.9133 38.8192 10.86C38.8192 10.7133 38.7859 10.5933 38.7192 10.5C38.6526 10.3933 38.6059 10.32 38.5792 10.28L39.6792 10.24H39.7792C40.0726 10.24 40.2192 10.3333 40.2192 10.52C40.2192 10.6133 40.1792 10.76 40.0992 10.96L38.4992 14.72C38.3126 15.16 38.1126 15.6 37.8992 16.04C37.6859 16.48 37.4659 16.9267 37.2392 17.38C38.1726 17.02 38.9126 16.58 39.4592 16.06C40.0192 15.5267 40.4459 15 40.7392 14.48C41.0459 13.9467 41.2792 13.5 41.4392 13.14C41.5992 13.14 41.6792 13.2 41.6792 13.32C41.5459 13.6133 41.3726 13.9667 41.1592 14.38C40.9459 14.78 40.6659 15.2067 40.3192 15.66C39.9726 16.1 39.5259 16.5267 38.9792 16.94C38.4326 17.3533 37.7459 17.7133 36.9192 18.02C36.5992 18.5933 36.2326 19.1867 35.8192 19.8C35.4059 20.4267 34.9392 21.0067 34.4192 21.54C33.8992 22.0867 33.3326 22.5267 32.7192 22.86C32.0926 23.2067 31.4059 23.38 30.6592 23.38ZM30.1792 22.98C30.6192 22.98 31.0792 22.8467 31.5592 22.58C32.0259 22.3133 32.4792 21.9733 32.9192 21.56C33.3592 21.16 33.7659 20.7467 34.1392 20.32C34.4992 19.8933 34.7926 19.52 35.0192 19.2C35.0992 19.0933 35.1726 18.9733 35.2392 18.84C35.3059 18.7067 35.3726 18.5733 35.4392 18.44C34.7992 18.6133 34.0926 18.8 33.3192 19C32.5459 19.2133 31.8659 19.4467 31.2792 19.7C30.6392 19.9667 30.1392 20.34 29.7792 20.82C29.4192 21.3133 29.2392 21.7533 29.2392 22.14C29.2392 22.3933 29.3192 22.5933 29.4792 22.74C29.6259 22.9 29.8592 22.98 30.1792 22.98ZM40.2592 9C40.0859 9 39.9326 8.93333 39.7992 8.8C39.6792 8.66667 39.6192 8.50667 39.6192 8.32C39.6192 8.09333 39.7126 7.89333 39.8992 7.72C40.0859 7.53333 40.2926 7.44 40.5192 7.44C40.7059 7.44 40.8659 7.5 40.9992 7.62C41.1326 7.74 41.1992 7.89333 41.1992 8.08C41.1992 8.32 41.1059 8.53333 40.9192 8.72C40.7326 8.90667 40.5126 9 40.2592 9ZM42.8739 17.08C42.3806 17.08 41.9339 16.92 41.5339 16.6C41.1472 16.28 40.9539 15.7933 40.9539 15.14C40.9539 14.5933 41.0739 14.0133 41.3139 13.4C41.5672 12.7867 41.8939 12.2133 42.2939 11.68C42.7072 11.1333 43.1606 10.6933 43.6539 10.36C44.1606 10.0133 44.6672 9.84 45.1739 9.84C45.4272 9.84 45.6739 9.91333 45.9139 10.06C46.1539 10.2067 46.2739 10.46 46.2739 10.82C46.2739 11.1533 46.1472 11.52 45.8939 11.92C45.6406 12.32 45.2806 12.6933 44.8139 13.04C44.6139 13.1867 44.3606 13.3267 44.0539 13.46C43.7472 13.5933 43.4406 13.7067 43.1339 13.8C42.8272 13.88 42.5739 13.92 42.3739 13.92C42.3072 14.08 42.2406 14.2933 42.1739 14.56C42.1206 14.8267 42.0939 15.1 42.0939 15.38C42.0939 15.7133 42.1606 16.0133 42.2939 16.28C42.4272 16.5467 42.6739 16.68 43.0339 16.68C43.4739 16.68 43.8806 16.5533 44.2539 16.3C44.6406 16.0467 44.9806 15.7267 45.2739 15.34C45.5806 14.9533 45.8406 14.56 46.0539 14.16C46.2672 13.76 46.4339 13.42 46.5539 13.14C46.7139 13.14 46.7939 13.2 46.7939 13.32C46.6206 13.6933 46.4206 14.1 46.1939 14.54C45.9806 14.98 45.7206 15.3933 45.4139 15.78C45.1206 16.1533 44.7606 16.4667 44.3339 16.72C43.9206 16.96 43.4339 17.08 42.8739 17.08ZM42.5139 13.56C42.7006 13.56 43.0139 13.4933 43.4539 13.36C43.8939 13.2133 44.2939 12.9867 44.6539 12.68C45.0006 12.3733 45.2672 12.04 45.4539 11.68C45.6406 11.3067 45.7339 10.9933 45.7339 10.74C45.7339 10.4467 45.6272 10.3 45.4139 10.3C45.2539 10.3 45.0339 10.4067 44.7539 10.62C44.4739 10.8333 44.1272 11.1933 43.7139 11.7C43.4606 12.02 43.2206 12.3667 42.9939 12.74C42.7672 13.1133 42.6072 13.3867 42.5139 13.56ZM46.5711 13.08C46.6778 12.8533 46.8178 12.4933 46.9911 12C47.1644 11.4933 47.3444 10.9333 47.5311 10.32C47.7178 9.70667 47.8578 9.12667 47.9511 8.58C47.9911 8.36667 48.0644 8.21333 48.1711 8.12C48.2778 8.01333 48.3911 7.96 48.5111 7.96C48.6844 7.96 48.8444 8.04667 48.9911 8.22C49.1378 8.38 49.2111 8.61333 49.2111 8.92C49.2111 9.29333 49.0978 9.61333 48.8711 9.88C48.6578 10.1467 48.3911 10.4 48.0711 10.64C48.2044 10.6533 48.3444 10.6667 48.4911 10.68C48.6378 10.68 48.7978 10.68 48.9711 10.68C49.5978 10.68 50.2178 10.64 50.8311 10.56C50.8578 10.64 50.8711 10.7 50.8711 10.74C50.8711 10.9133 50.8178 11.1333 50.7111 11.4C50.6178 11.6667 50.5178 11.9067 50.4111 12.12C50.3578 12.24 50.2511 12.46 50.0911 12.78C49.9311 13.0867 49.7578 13.44 49.5711 13.84C49.3844 14.2267 49.2244 14.6133 49.0911 15C48.9711 15.3733 48.9111 15.6933 48.9111 15.96C48.9111 16.3067 49.0444 16.48 49.3111 16.48C49.5644 16.48 49.9178 16.1867 50.3711 15.6C50.8244 15 51.2778 14.18 51.7311 13.14C51.8911 13.14 51.9711 13.2 51.9711 13.32C51.8244 13.68 51.6378 14.0733 51.4111 14.5C51.1978 14.9267 50.9578 15.3333 50.6911 15.72C50.4244 16.0933 50.1378 16.4067 49.8311 16.66C49.5244 16.9 49.2044 17.02 48.8711 17.02C48.6178 17.02 48.3644 16.92 48.1111 16.72C47.8578 16.5067 47.7311 16.1667 47.7311 15.7C47.7311 15.2867 47.8111 14.8867 47.9711 14.5C48.1311 14.1 48.3111 13.7267 48.5111 13.38C48.7111 13.0333 48.8911 12.7267 49.0511 12.46C49.2111 12.1933 49.2911 11.98 49.2911 11.82C49.2911 11.58 49.1378 11.4067 48.8311 11.3C48.5378 11.1933 48.1511 11.1333 47.6711 11.12C47.4311 11.7333 47.2511 12.1867 47.1311 12.48C47.0111 12.7733 46.8978 13.0533 46.7911 13.32C46.5778 13.32 46.5044 13.24 46.5711 13.08ZM52.2869 17C51.7935 17 51.4469 16.86 51.2469 16.58C51.0469 16.2867 50.9469 15.9533 50.9469 15.58C50.9469 15.38 50.9669 15.18 51.0069 14.98C51.0602 14.7667 51.1202 14.5733 51.1869 14.4L52.5269 10.98C52.5669 10.8733 52.5869 10.78 52.5869 10.7C52.5869 10.5667 52.5535 10.4533 52.4869 10.36C52.4202 10.2533 52.3735 10.18 52.3469 10.14L53.4469 10.1C53.6469 10.0867 53.7869 10.1133 53.8669 10.18C53.9602 10.2333 54.0069 10.3 54.0069 10.38C54.0069 10.46 53.9602 10.6067 53.8669 10.82C53.7335 11.14 53.5535 11.54 53.3269 12.02C53.1002 12.5 52.8735 12.9933 52.6469 13.5C52.4335 14.0067 52.2469 14.48 52.0869 14.92C51.9402 15.36 51.8669 15.7 51.8669 15.94C51.8669 16.1133 51.9069 16.26 51.9869 16.38C52.0802 16.5 52.2335 16.56 52.4469 16.56C52.7269 16.56 53.0002 16.4533 53.2669 16.24C53.5469 16.0133 53.8069 15.7267 54.0469 15.38C54.2869 15.0333 54.5069 14.66 54.7069 14.26C54.9202 13.86 55.1002 13.4867 55.2469 13.14C55.4069 13.14 55.4869 13.2 55.4869 13.32C55.3535 13.6533 55.1802 14.0333 54.9669 14.46C54.7535 14.8867 54.5069 15.2933 54.2269 15.68C53.9602 16.0533 53.6602 16.3667 53.3269 16.62C53.0069 16.8733 52.6602 17 52.2869 17ZM54.0669 8.86C53.8935 8.86 53.7402 8.79333 53.6069 8.66C53.4869 8.52667 53.4269 8.36667 53.4269 8.18C53.4269 7.95333 53.5202 7.75333 53.7069 7.58C53.8935 7.39333 54.1002 7.3 54.3269 7.3C54.5135 7.3 54.6735 7.36 54.8069 7.48C54.9402 7.6 55.0069 7.75333 55.0069 7.94C55.0069 8.18 54.9135 8.39333 54.7269 8.58C54.5402 8.76667 54.3202 8.86 54.0669 8.86ZM59.5825 17.06C59.2758 17.06 59.0025 16.9733 58.7625 16.8C58.5358 16.6267 58.4225 16.2733 58.4225 15.74C58.4225 15.5133 58.4358 15.3 58.4625 15.1C58.5025 14.9 58.5492 14.6867 58.6025 14.46C58.4825 14.66 58.3158 14.9067 58.1025 15.2C57.8892 15.4933 57.6492 15.78 57.3825 16.06C57.1292 16.34 56.8625 16.5733 56.5825 16.76C56.3158 16.9467 56.0625 17.04 55.8225 17.04C55.4758 17.04 55.1958 16.8867 54.9825 16.58C54.7692 16.26 54.6625 15.8467 54.6625 15.34C54.6625 14.7933 54.7892 14.2067 55.0425 13.58C55.2958 12.9533 55.6425 12.3533 56.0825 11.78C56.5225 11.2067 57.0292 10.74 57.6025 10.38C58.1758 10.02 58.7758 9.84 59.4025 9.84C59.7092 9.84 60.0025 9.89333 60.2825 10C60.5625 10.0933 60.8092 10.2533 61.0225 10.48C61.1158 10.5733 61.1625 10.68 61.1625 10.8C61.1625 10.88 61.1292 10.9467 61.0625 11C60.9958 11.0533 60.9092 11.0667 60.8025 11.04C60.6558 10.5733 60.3425 10.34 59.8625 10.34C59.6358 10.34 59.3758 10.4133 59.0825 10.56C58.7225 10.7467 58.3358 11.0467 57.9225 11.46C57.5225 11.86 57.1425 12.32 56.7825 12.84C56.4358 13.3467 56.1492 13.86 55.9225 14.38C55.6958 14.9 55.5825 15.3733 55.5825 15.8C55.5825 16.24 55.7492 16.46 56.0825 16.46C56.3758 16.46 56.6758 16.32 56.9825 16.04C57.3025 15.76 57.6025 15.4133 57.8825 15C58.1758 14.5733 58.4425 14.1533 58.6825 13.74C58.9225 13.3267 59.1092 12.9933 59.2425 12.74C59.4425 12.38 59.6292 12.08 59.8025 11.84C59.9758 11.6 60.2225 11.48 60.5425 11.48C60.6892 11.48 60.8358 11.5 60.9825 11.54C61.1292 11.58 61.2825 11.5867 61.4425 11.56C61.0425 11.96 60.6892 12.4333 60.3825 12.98C60.0892 13.5267 59.8625 14.0667 59.7025 14.6C59.5425 15.12 59.4625 15.56 59.4625 15.92C59.4625 16.32 59.5958 16.52 59.8625 16.52C60.0758 16.52 60.3025 16.4 60.5425 16.16C60.7958 15.92 61.0358 15.62 61.2625 15.26C61.5025 14.8867 61.7225 14.5133 61.9225 14.14C62.1225 13.7533 62.2825 13.42 62.4025 13.14C62.4692 13.14 62.5225 13.1467 62.5625 13.16C62.6158 13.1733 62.6425 13.2267 62.6425 13.32C62.6292 13.3733 62.6025 13.4333 62.5625 13.5C62.5358 13.5533 62.4892 13.6533 62.4225 13.8C62.3158 14.0133 62.1692 14.3 61.9825 14.66C61.7958 15.02 61.5758 15.3867 61.3225 15.76C61.0692 16.12 60.7958 16.4267 60.5025 16.68C60.2092 16.9333 59.9025 17.06 59.5825 17.06ZM63.0684 23.38C62.3751 23.38 61.8818 23.24 61.5884 22.96C61.2951 22.6933 61.1484 22.3733 61.1484 22C61.1484 21.4267 61.3618 20.8933 61.7884 20.4C62.2018 19.92 62.7151 19.5333 63.3284 19.24C64.0218 18.92 64.8084 18.66 65.6884 18.46C66.5818 18.26 67.4351 18.04 68.2484 17.8C68.5018 17.36 68.7351 16.86 68.9484 16.3C69.1618 15.7267 69.3551 15.1733 69.5284 14.64C69.7018 14.0933 69.8418 13.6467 69.9484 13.3C69.7884 13.5933 69.5818 13.9533 69.3284 14.38C69.0884 14.7933 68.8151 15.2 68.5084 15.6C68.2018 16 67.8684 16.3333 67.5084 16.6C67.1618 16.8667 66.7951 17 66.4084 17C66.2618 17 66.0818 16.9667 65.8684 16.9C65.6684 16.8333 65.4884 16.7133 65.3284 16.54C65.1818 16.3533 65.1084 16.08 65.1084 15.72C65.1084 15.3733 65.2151 14.9933 65.4284 14.58C65.6418 14.1533 65.8551 13.7333 66.0684 13.32C66.0018 13.32 65.9418 13.3133 65.8884 13.3C65.8484 13.2867 65.8284 13.2333 65.8284 13.14C65.8684 13.06 65.9484 12.8867 66.0684 12.62C66.1884 12.3533 66.3218 12.06 66.4684 11.74C66.6284 11.42 66.7684 11.14 66.8884 10.9C67.0351 10.5933 67.1951 10.38 67.3684 10.26C67.5551 10.14 67.7351 10.08 67.9084 10.08H69.1484C69.0551 10.16 68.9351 10.2533 68.7884 10.36C68.6551 10.4533 68.5284 10.6 68.4084 10.8C68.0484 11.4133 67.7351 12.0067 67.4684 12.58C67.2018 13.14 66.9151 13.74 66.6084 14.38C66.4618 14.6867 66.3551 14.9667 66.2884 15.22C66.2218 15.4733 66.1884 15.6933 66.1884 15.88C66.1884 16.32 66.3351 16.54 66.6284 16.54C66.9484 16.54 67.3351 16.28 67.7884 15.76C68.1618 15.32 68.5351 14.8 68.9084 14.2C69.2951 13.5867 69.6618 12.96 70.0084 12.32C70.3684 11.6667 70.6818 11.0667 70.9484 10.52C71.0951 10.2267 71.3551 10.08 71.7284 10.08H72.8284C72.4418 10.3467 72.1418 10.6933 71.9284 11.12C71.7284 11.5467 71.5018 12.0933 71.2484 12.76C70.9684 13.4933 70.7018 14.2533 70.4484 15.04C70.1951 15.8267 69.9151 16.6333 69.6084 17.46C70.2618 17.2333 70.8084 16.94 71.2484 16.58C71.6884 16.22 72.0751 15.76 72.4084 15.2C72.7551 14.6267 73.1018 13.94 73.4484 13.14C73.6084 13.14 73.6884 13.2 73.6884 13.32C73.3951 13.9333 73.1284 14.4733 72.8884 14.94C72.6484 15.4067 72.3818 15.82 72.0884 16.18C71.7951 16.5267 71.4284 16.8467 70.9884 17.14C70.5484 17.4467 69.9818 17.74 69.2884 18.02C68.9684 18.5933 68.6018 19.1867 68.1884 19.8C67.7884 20.4267 67.3284 21.0067 66.8084 21.54C66.3018 22.0867 65.7351 22.5267 65.1084 22.86C64.4951 23.2067 63.8151 23.38 63.0684 23.38ZM62.5884 22.98C63.0284 22.98 63.4818 22.8467 63.9484 22.58C64.4151 22.3133 64.8684 21.9733 65.3084 21.56C65.7484 21.16 66.1484 20.7467 66.5084 20.32C66.8818 19.9067 67.1818 19.54 67.4084 19.22C67.4751 19.1267 67.5484 19.0067 67.6284 18.86C67.7084 18.7133 67.7884 18.5733 67.8684 18.44C67.2151 18.6133 66.4951 18.8 65.7084 19C64.9351 19.2133 64.2618 19.4467 63.6884 19.7C63.0484 19.9667 62.5484 20.3467 62.1884 20.84C61.8151 21.3333 61.6284 21.7733 61.6284 22.16C61.6284 22.4 61.7084 22.5933 61.8684 22.74C62.0151 22.9 62.2551 22.98 62.5884 22.98ZM81.8291 24.64C80.5624 24.64 79.4157 24.4267 78.3891 24C77.3757 23.5733 76.5757 22.9533 75.9891 22.14C75.3891 21.3267 75.0891 20.3467 75.0891 19.2C75.0891 18.1333 75.2957 17.26 75.7091 16.58C76.1224 15.8867 76.5757 15.3667 77.0691 15.02C77.3491 14.82 77.6091 14.68 77.8491 14.6C78.0891 14.5067 78.2491 14.46 78.3291 14.46C78.4091 14.46 78.4491 14.4933 78.4491 14.56C78.4491 14.6267 78.4157 14.68 78.3491 14.72C77.6557 15.1333 77.1224 15.72 76.7491 16.48C76.3891 17.24 76.2091 18.0733 76.2091 18.98C76.2091 20.02 76.4491 20.92 76.9291 21.68C77.4091 22.4533 78.0757 23.0467 78.9291 23.46C79.7824 23.8733 80.7691 24.08 81.8891 24.08C83.7824 24.08 85.5891 23.3333 87.3091 21.84C89.0291 20.3467 90.6891 18.2667 92.2891 15.6C92.8891 14.5733 93.4557 13.5133 93.9891 12.42C94.5224 11.3267 95.0291 10.2467 95.5091 9.18C95.9891 8.14 96.4424 7.20667 96.8691 6.38C97.3091 5.54 97.6891 4.83333 98.0091 4.26C98.3424 3.68667 98.5824 3.28667 98.7291 3.06C95.3557 3.51333 92.7424 4.23333 90.8891 5.22C89.0491 6.20667 88.1291 7.47333 88.1291 9.02C88.1291 9.82 88.3357 10.42 88.7491 10.82C89.1624 11.2067 89.6357 11.4 90.1691 11.4C90.6891 11.4 91.2091 11.2333 91.7291 10.9C92.2624 10.5667 92.7024 10.1067 93.0491 9.52C93.4091 8.92 93.5891 8.22667 93.5891 7.44C93.5891 7.05333 93.4691 6.74 93.2291 6.5C93.2291 6.36667 93.2957 6.3 93.4291 6.3C93.5891 6.3 93.7291 6.42 93.8491 6.66C93.9824 6.9 94.0491 7.2 94.0491 7.56C94.0491 8.45333 93.8357 9.22667 93.4091 9.88C92.9957 10.52 92.4624 11.0133 91.8091 11.36C91.1691 11.7067 90.5091 11.88 89.8291 11.88C89.3091 11.88 88.8157 11.7667 88.3491 11.54C87.8824 11.3133 87.4957 10.9667 87.1891 10.5C86.8957 10.0333 86.7491 9.45333 86.7491 8.76C86.7491 7.85333 87.0491 7.06667 87.6491 6.4C88.2624 5.72 89.1157 5.14 90.2091 4.66C91.3157 4.18 92.6157 3.76667 94.1091 3.42C95.6157 3.07333 97.2691 2.77333 99.0691 2.52C99.4424 2 99.7824 1.59333 100.089 1.3C100.409 1.00667 100.756 0.859999 101.129 0.859999C101.342 0.859999 101.509 0.913333 101.629 1.02C101.762 1.12667 101.829 1.28667 101.829 1.5C101.829 1.80667 101.702 2.06 101.449 2.26C101.196 2.44667 100.876 2.6 100.489 2.72C100.102 2.82667 99.7157 2.91333 99.3291 2.98C98.8357 3.83333 98.4024 4.71333 98.0291 5.62C97.6691 6.51333 97.3291 7.43333 97.0091 8.38C96.7024 9.31333 96.3691 10.2733 96.0091 11.26C95.6624 12.2333 95.2491 13.2333 94.7691 14.26C93.7691 16.38 92.6157 18.2133 91.3091 19.76C90.0024 21.32 88.5557 22.52 86.9691 23.36C85.3824 24.2133 83.6691 24.64 81.8291 24.64ZM99.6891 2.48C100.236 2.38667 100.602 2.27333 100.789 2.14C100.976 1.99333 101.069 1.86 101.069 1.74C101.069 1.58 100.989 1.5 100.829 1.5C100.682 1.5 100.502 1.61333 100.289 1.84C100.089 2.05333 99.8891 2.26667 99.6891 2.48ZM98.1027 17C97.556 17 97.1493 16.8067 96.8827 16.42C96.6293 16.02 96.5027 15.54 96.5027 14.98C96.5027 14.46 96.6027 13.92 96.8027 13.36C97.016 12.7467 97.3093 12.1867 97.6827 11.68C98.0693 11.1733 98.4893 10.7667 98.9427 10.46C99.4093 10.14 99.8693 9.98 100.323 9.98C100.869 9.98 101.269 10.1667 101.523 10.54C101.789 10.9133 101.923 11.3867 101.923 11.96C101.923 12.36 101.856 12.78 101.723 13.22C101.589 13.66 101.409 14.0933 101.183 14.52C101.356 14.6933 101.603 14.78 101.923 14.78C102.296 14.78 102.616 14.66 102.883 14.42C103.149 14.18 103.409 13.7533 103.663 13.14C103.823 13.14 103.903 13.2 103.903 13.32C103.649 13.9333 103.356 14.3867 103.023 14.68C102.703 14.96 102.289 15.0933 101.783 15.08C101.476 15.08 101.223 14.9933 101.023 14.82C100.649 15.4333 100.203 15.9533 99.6827 16.38C99.176 16.7933 98.6493 17 98.1027 17ZM98.3827 16.56C98.6893 16.56 98.996 16.4333 99.3027 16.18C99.6093 15.9133 99.8893 15.6133 100.143 15.28C100.396 14.9467 100.576 14.66 100.683 14.42C100.469 14.0333 100.343 13.7467 100.303 13.56C100.276 13.36 100.263 13.2133 100.263 13.12C100.263 12.8667 100.329 12.6733 100.463 12.54C100.596 12.4067 100.729 12.34 100.863 12.34C101.049 12.34 101.209 12.42 101.343 12.58C101.369 12.4333 101.389 12.3 101.403 12.18C101.416 12.0467 101.423 11.92 101.423 11.8C101.423 11.4533 101.356 11.1733 101.223 10.96C101.103 10.7333 100.909 10.62 100.643 10.62C100.363 10.62 100.069 10.74 99.7627 10.98C99.456 11.22 99.1627 11.54 98.8827 11.94C98.616 12.34 98.3827 12.7867 98.1827 13.28C98.0093 13.6933 97.876 14.0867 97.7827 14.46C97.6893 14.82 97.6427 15.1533 97.6427 15.46C97.6427 15.7933 97.7027 16.06 97.8227 16.26C97.9427 16.46 98.1293 16.56 98.3827 16.56ZM100.9 23.38C100.207 23.38 99.7138 23.24 99.4205 22.96C99.1271 22.6933 98.9805 22.3733 98.9805 22C98.9805 21.4267 99.1938 20.8933 99.6205 20.4C100.034 19.92 100.547 19.5333 101.16 19.24C101.854 18.92 102.64 18.66 103.52 18.46C104.414 18.26 105.267 18.04 106.08 17.8C106.334 17.36 106.567 16.86 106.78 16.3C106.994 15.7267 107.187 15.1733 107.36 14.64C107.534 14.0933 107.674 13.6467 107.78 13.3C107.62 13.5933 107.414 13.9533 107.16 14.38C106.92 14.7933 106.647 15.2 106.34 15.6C106.034 16 105.7 16.3333 105.34 16.6C104.994 16.8667 104.627 17 104.24 17C104.094 17 103.914 16.9667 103.7 16.9C103.5 16.8333 103.32 16.7133 103.16 16.54C103.014 16.3533 102.94 16.08 102.94 15.72C102.94 15.3733 103.047 14.9933 103.26 14.58C103.474 14.1533 103.687 13.7333 103.9 13.32C103.834 13.32 103.774 13.3133 103.72 13.3C103.68 13.2867 103.66 13.2333 103.66 13.14C103.7 13.06 103.78 12.8867 103.9 12.62C104.02 12.3533 104.154 12.06 104.3 11.74C104.46 11.42 104.6 11.14 104.72 10.9C104.867 10.5933 105.027 10.38 105.2 10.26C105.387 10.14 105.567 10.08 105.74 10.08H106.98C106.887 10.16 106.767 10.2533 106.62 10.36C106.487 10.4533 106.36 10.6 106.24 10.8C105.88 11.4133 105.567 12.0067 105.3 12.58C105.034 13.14 104.747 13.74 104.44 14.38C104.294 14.6867 104.187 14.9667 104.12 15.22C104.054 15.4733 104.02 15.6933 104.02 15.88C104.02 16.32 104.167 16.54 104.46 16.54C104.78 16.54 105.167 16.28 105.62 15.76C105.994 15.32 106.367 14.8 106.74 14.2C107.127 13.5867 107.494 12.96 107.84 12.32C108.2 11.6667 108.514 11.0667 108.78 10.52C108.927 10.2267 109.187 10.08 109.56 10.08H110.66C110.274 10.3467 109.974 10.6933 109.76 11.12C109.56 11.5467 109.334 12.0933 109.08 12.76C108.8 13.4933 108.534 14.2533 108.28 15.04C108.027 15.8267 107.747 16.6333 107.44 17.46C108.094 17.2333 108.64 16.94 109.08 16.58C109.52 16.22 109.907 15.76 110.24 15.2C110.587 14.6267 110.934 13.94 111.28 13.14C111.44 13.14 111.52 13.2 111.52 13.32C111.227 13.9333 110.96 14.4733 110.72 14.94C110.48 15.4067 110.214 15.82 109.92 16.18C109.627 16.5267 109.26 16.8467 108.82 17.14C108.38 17.4467 107.814 17.74 107.12 18.02C106.8 18.5933 106.434 19.1867 106.02 19.8C105.62 20.4267 105.16 21.0067 104.64 21.54C104.134 22.0867 103.567 22.5267 102.94 22.86C102.327 23.2067 101.647 23.38 100.9 23.38ZM100.42 22.98C100.86 22.98 101.314 22.8467 101.78 22.58C102.247 22.3133 102.7 21.9733 103.14 21.56C103.58 21.16 103.98 20.7467 104.34 20.32C104.714 19.9067 105.014 19.54 105.24 19.22C105.307 19.1267 105.38 19.0067 105.46 18.86C105.54 18.7133 105.62 18.5733 105.7 18.44C105.047 18.6133 104.327 18.8 103.54 19C102.767 19.2133 102.094 19.4467 101.52 19.7C100.88 19.9667 100.38 20.3467 100.02 20.84C99.6471 21.3333 99.4605 21.7733 99.4605 22.16C99.4605 22.4 99.5405 22.5933 99.7005 22.74C99.8471 22.9 100.087 22.98 100.42 22.98ZM112.718 17.08C112.224 17.08 111.778 16.92 111.378 16.6C110.991 16.28 110.798 15.7933 110.798 15.14C110.798 14.5933 110.918 14.0133 111.158 13.4C111.411 12.7867 111.738 12.2133 112.138 11.68C112.551 11.1333 113.004 10.6933 113.498 10.36C114.004 10.0133 114.511 9.84 115.018 9.84C115.271 9.84 115.518 9.91333 115.758 10.06C115.998 10.2067 116.118 10.46 116.118 10.82C116.118 11.1533 115.991 11.52 115.738 11.92C115.484 12.32 115.124 12.6933 114.658 13.04C114.458 13.1867 114.204 13.3267 113.898 13.46C113.591 13.5933 113.284 13.7067 112.978 13.8C112.671 13.88 112.418 13.92 112.218 13.92C112.151 14.08 112.084 14.2933 112.018 14.56C111.964 14.8267 111.938 15.1 111.938 15.38C111.938 15.7133 112.004 16.0133 112.138 16.28C112.271 16.5467 112.518 16.68 112.878 16.68C113.318 16.68 113.724 16.5533 114.098 16.3C114.484 16.0467 114.824 15.7267 115.118 15.34C115.424 14.9533 115.684 14.56 115.898 14.16C116.111 13.76 116.278 13.42 116.398 13.14C116.558 13.14 116.638 13.2 116.638 13.32C116.464 13.6933 116.264 14.1 116.038 14.54C115.824 14.98 115.564 15.3933 115.258 15.78C114.964 16.1533 114.604 16.4667 114.178 16.72C113.764 16.96 113.278 17.08 112.718 17.08ZM112.358 13.56C112.544 13.56 112.858 13.4933 113.298 13.36C113.738 13.2133 114.138 12.9867 114.498 12.68C114.844 12.3733 115.111 12.04 115.298 11.68C115.484 11.3067 115.578 10.9933 115.578 10.74C115.578 10.4467 115.471 10.3 115.258 10.3C115.098 10.3 114.878 10.4067 114.598 10.62C114.318 10.8333 113.971 11.1933 113.558 11.7C113.304 12.02 113.064 12.3667 112.838 12.74C112.611 13.1133 112.451 13.3867 112.358 13.56ZM116.415 13.08C116.522 12.8533 116.662 12.4933 116.835 12C117.008 11.4933 117.188 10.9333 117.375 10.32C117.562 9.70667 117.702 9.12667 117.795 8.58C117.835 8.36667 117.908 8.21333 118.015 8.12C118.122 8.01333 118.235 7.96 118.355 7.96C118.528 7.96 118.688 8.04667 118.835 8.22C118.982 8.38 119.055 8.61333 119.055 8.92C119.055 9.29333 118.942 9.61333 118.715 9.88C118.502 10.1467 118.235 10.4 117.915 10.64C118.048 10.6533 118.188 10.6667 118.335 10.68C118.482 10.68 118.642 10.68 118.815 10.68C119.442 10.68 120.062 10.64 120.675 10.56C120.702 10.64 120.715 10.7 120.715 10.74C120.715 10.9133 120.662 11.1333 120.555 11.4C120.462 11.6667 120.362 11.9067 120.255 12.12C120.202 12.24 120.095 12.46 119.935 12.78C119.775 13.0867 119.602 13.44 119.415 13.84C119.228 14.2267 119.068 14.6133 118.935 15C118.815 15.3733 118.755 15.6933 118.755 15.96C118.755 16.3067 118.888 16.48 119.155 16.48C119.408 16.48 119.762 16.1867 120.215 15.6C120.668 15 121.122 14.18 121.575 13.14C121.735 13.14 121.815 13.2 121.815 13.32C121.668 13.68 121.482 14.0733 121.255 14.5C121.042 14.9267 120.802 15.3333 120.535 15.72C120.268 16.0933 119.982 16.4067 119.675 16.66C119.368 16.9 119.048 17.02 118.715 17.02C118.462 17.02 118.208 16.92 117.955 16.72C117.702 16.5067 117.575 16.1667 117.575 15.7C117.575 15.2867 117.655 14.8867 117.815 14.5C117.975 14.1 118.155 13.7267 118.355 13.38C118.555 13.0333 118.735 12.7267 118.895 12.46C119.055 12.1933 119.135 11.98 119.135 11.82C119.135 11.58 118.982 11.4067 118.675 11.3C118.382 11.1933 117.995 11.1333 117.515 11.12C117.275 11.7333 117.095 12.1867 116.975 12.48C116.855 12.7733 116.742 13.0533 116.635 13.32C116.422 13.32 116.348 13.24 116.415 13.08ZM122.131 17C121.637 17 121.291 16.86 121.091 16.58C120.891 16.2867 120.791 15.9533 120.791 15.58C120.791 15.38 120.811 15.18 120.851 14.98C120.904 14.7667 120.964 14.5733 121.031 14.4L122.371 10.98C122.411 10.8733 122.431 10.78 122.431 10.7C122.431 10.5667 122.397 10.4533 122.331 10.36C122.264 10.2533 122.217 10.18 122.191 10.14L123.291 10.1C123.491 10.0867 123.631 10.1133 123.711 10.18C123.804 10.2333 123.851 10.3 123.851 10.38C123.851 10.46 123.804 10.6067 123.711 10.82C123.577 11.14 123.397 11.54 123.171 12.02C122.944 12.5 122.717 12.9933 122.491 13.5C122.277 14.0067 122.091 14.48 121.931 14.92C121.784 15.36 121.711 15.7 121.711 15.94C121.711 16.1133 121.751 16.26 121.831 16.38C121.924 16.5 122.077 16.56 122.291 16.56C122.571 16.56 122.844 16.4533 123.111 16.24C123.391 16.0133 123.651 15.7267 123.891 15.38C124.131 15.0333 124.351 14.66 124.551 14.26C124.764 13.86 124.944 13.4867 125.091 13.14C125.251 13.14 125.331 13.2 125.331 13.32C125.197 13.6533 125.024 14.0333 124.811 14.46C124.597 14.8867 124.351 15.2933 124.071 15.68C123.804 16.0533 123.504 16.3667 123.171 16.62C122.851 16.8733 122.504 17 122.131 17ZM123.911 8.86C123.737 8.86 123.584 8.79333 123.451 8.66C123.331 8.52667 123.271 8.36667 123.271 8.18C123.271 7.95333 123.364 7.75333 123.551 7.58C123.737 7.39333 123.944 7.3 124.171 7.3C124.357 7.3 124.517 7.36 124.651 7.48C124.784 7.6 124.851 7.75333 124.851 7.94C124.851 8.18 124.757 8.39333 124.571 8.58C124.384 8.76667 124.164 8.86 123.911 8.86ZM129.426 17.06C129.12 17.06 128.846 16.9733 128.606 16.8C128.38 16.6267 128.266 16.2733 128.266 15.74C128.266 15.5133 128.28 15.3 128.306 15.1C128.346 14.9 128.393 14.6867 128.446 14.46C128.326 14.66 128.16 14.9067 127.946 15.2C127.733 15.4933 127.493 15.78 127.226 16.06C126.973 16.34 126.706 16.5733 126.426 16.76C126.16 16.9467 125.906 17.04 125.666 17.04C125.32 17.04 125.04 16.8867 124.826 16.58C124.613 16.26 124.506 15.8467 124.506 15.34C124.506 14.7933 124.633 14.2067 124.886 13.58C125.14 12.9533 125.486 12.3533 125.926 11.78C126.366 11.2067 126.873 10.74 127.446 10.38C128.02 10.02 128.62 9.84 129.246 9.84C129.553 9.84 129.846 9.89333 130.126 10C130.406 10.0933 130.653 10.2533 130.866 10.48C130.96 10.5733 131.006 10.68 131.006 10.8C131.006 10.88 130.973 10.9467 130.906 11C130.84 11.0533 130.753 11.0667 130.646 11.04C130.5 10.5733 130.186 10.34 129.706 10.34C129.48 10.34 129.22 10.4133 128.926 10.56C128.566 10.7467 128.18 11.0467 127.766 11.46C127.366 11.86 126.986 12.32 126.626 12.84C126.28 13.3467 125.993 13.86 125.766 14.38C125.54 14.9 125.426 15.3733 125.426 15.8C125.426 16.24 125.593 16.46 125.926 16.46C126.22 16.46 126.52 16.32 126.826 16.04C127.146 15.76 127.446 15.4133 127.726 15C128.02 14.5733 128.286 14.1533 128.526 13.74C128.766 13.3267 128.953 12.9933 129.086 12.74C129.286 12.38 129.473 12.08 129.646 11.84C129.82 11.6 130.066 11.48 130.386 11.48C130.533 11.48 130.68 11.5 130.826 11.54C130.973 11.58 131.126 11.5867 131.286 11.56C130.886 11.96 130.533 12.4333 130.226 12.98C129.933 13.5267 129.706 14.0667 129.546 14.6C129.386 15.12 129.306 15.56 129.306 15.92C129.306 16.32 129.44 16.52 129.706 16.52C129.92 16.52 130.146 16.4 130.386 16.16C130.64 15.92 130.88 15.62 131.106 15.26C131.346 14.8867 131.566 14.5133 131.766 14.14C131.966 13.7533 132.126 13.42 132.246 13.14C132.313 13.14 132.366 13.1467 132.406 13.16C132.46 13.1733 132.486 13.2267 132.486 13.32C132.473 13.3733 132.446 13.4333 132.406 13.5C132.38 13.5533 132.333 13.6533 132.266 13.8C132.16 14.0133 132.013 14.3 131.826 14.66C131.64 15.02 131.42 15.3867 131.166 15.76C130.913 16.12 130.64 16.4267 130.346 16.68C130.053 16.9333 129.746 17.06 129.426 17.06Z" fill="#006B0B"/>
<path d="M5.488 35.344C4.69867 35.344 4.05867 35.0667 3.568 34.512C3.09867 33.936 2.864 33.1893 2.864 32.272C2.864 31.0773 3.216 29.968 3.92 28.944C4.624 27.8987 5.49867 27.12 6.544 26.608L6.736 26.992C6.288 27.3333 5.89333 27.7707 5.552 28.304C5.21067 28.8373 4.96533 29.4987 4.816 30.288L5.488 30.448C6.23467 30.6187 6.81067 30.9387 7.216 31.408C7.64267 31.856 7.856 32.4 7.856 33.04C7.856 33.7227 7.62133 34.2773 7.152 34.704C6.704 35.1307 6.14933 35.344 5.488 35.344ZM12.24 35.344C11.4507 35.344 10.8107 35.0667 10.32 34.512C9.85067 33.936 9.616 33.1893 9.616 32.272C9.616 31.0773 9.968 29.968 10.672 28.944C11.376 27.8987 12.2507 27.12 13.296 26.608L13.488 26.992C13.04 27.3333 12.6453 27.7707 12.304 28.304C11.9627 28.8373 11.7173 29.4987 11.568 30.288L12.24 30.448C12.9867 30.6187 13.5627 30.9387 13.968 31.408C14.3947 31.856 14.608 32.4 14.608 33.04C14.608 33.7227 14.3733 34.2773 13.904 34.704C13.456 35.1307 12.9013 35.344 12.24 35.344ZM25.9075 50.576C24.6062 50.576 23.3475 50.3413 22.1315 49.872C20.9368 49.4027 19.8595 48.7093 18.8995 47.792C17.9608 46.8533 17.2142 45.6907 16.6595 44.304C16.1048 42.9173 15.8275 41.296 15.8275 39.44C15.8275 37.6053 16.1048 35.9947 16.6595 34.608C17.2142 33.2213 17.9715 32.0693 18.9315 31.152C19.8915 30.2133 20.9688 29.5093 22.1635 29.04C23.3795 28.5493 24.6275 28.304 25.9075 28.304C27.2088 28.304 28.4568 28.5387 29.6515 29.008C30.8675 29.456 31.9448 30.1493 32.8835 31.088C33.8435 32.0053 34.6008 33.168 35.1555 34.576C35.7102 35.9627 35.9875 37.584 35.9875 39.44C35.9875 41.2533 35.7102 42.864 35.1555 44.272C34.6008 45.6587 33.8435 46.8213 32.8835 47.76C31.9448 48.6773 30.8675 49.3813 29.6515 49.872C28.4568 50.3413 27.2088 50.576 25.9075 50.576ZM25.9075 49.904C27.0808 49.904 28.0302 49.5947 28.7555 48.976C29.4808 48.336 30.0035 47.2587 30.3235 45.744C30.6648 44.208 30.8355 42.1067 30.8355 39.44C30.8355 36.752 30.6648 34.6507 30.3235 33.136C30.0035 31.6 29.4808 30.5227 28.7555 29.904C28.0302 29.264 27.0808 28.944 25.9075 28.944C24.7555 28.944 23.8168 29.264 23.0915 29.904C22.3662 30.5227 21.8328 31.6 21.4915 33.136C21.1715 34.6507 21.0115 36.752 21.0115 39.44C21.0115 42.1067 21.1715 44.208 21.4915 45.744C21.8328 47.2587 22.3662 48.336 23.0915 48.976C23.8168 49.5947 24.7555 49.904 25.9075 49.904ZM36.64 50V49.68L37.28 49.456C38.0053 49.2213 38.368 48.6133 38.368 47.632V31.248C38.368 30.8213 38.3147 30.48 38.208 30.224C38.1227 29.968 37.8773 29.7547 37.472 29.584L36.64 29.2V28.88H42.816L48.736 44.368L54.304 28.88H60.608V29.2L60.096 29.392C59.6907 29.5413 59.4133 29.7547 59.264 30.032C59.1147 30.288 59.04 30.6293 59.04 31.056V47.792C59.04 48.2187 59.0933 48.5493 59.2 48.784C59.3067 49.0187 59.5627 49.2213 59.968 49.392L60.608 49.68V50H52.64V49.68L53.312 49.392C53.7173 49.2213 53.9733 49.0187 54.08 48.784C54.1867 48.5493 54.24 48.2187 54.24 47.792V40.592L54.304 31.44L47.616 50H46.016L39.04 31.664L39.136 39.632V47.696C39.136 48.1653 39.2 48.5493 39.328 48.848C39.4773 49.1253 39.7547 49.328 40.16 49.456L40.864 49.68V50H36.64ZM62.0165 50V49.68L62.7525 49.392C63.1152 49.2427 63.3605 49.0507 63.4885 48.816C63.6378 48.56 63.7125 48.2187 63.7125 47.792V31.088C63.7125 30.6613 63.6485 30.3307 63.5205 30.096C63.4138 29.84 63.1578 29.6373 62.7525 29.488L62.0165 29.2V28.88H77.3445L77.5365 33.808H77.2165L75.8405 30.8C75.6485 30.416 75.4458 30.1067 75.2325 29.872C75.0192 29.6373 74.6992 29.52 74.2725 29.52H68.5125V38.768H71.9365C72.3632 38.768 72.6832 38.6613 72.8965 38.448C73.1312 38.2133 73.3338 37.904 73.5045 37.52L74.1445 36.24H74.4645V42H74.1445L73.5045 40.656C73.3125 40.272 73.1098 39.9733 72.8965 39.76C72.6832 39.5253 72.3632 39.408 71.9365 39.408H68.5125V49.36H74.9765C75.4032 49.36 75.7338 49.2533 75.9685 49.04C76.2032 48.8053 76.3952 48.4853 76.5445 48.08L77.8565 45.072H78.1765L77.9845 50H62.0165ZM90.3668 50.576C88.1908 50.576 86.2708 50.128 84.6068 49.232C82.9641 48.3147 81.6734 47.024 80.7348 45.36C79.8174 43.6747 79.3588 41.6907 79.3588 39.408C79.3588 37.1893 79.8174 35.248 80.7348 33.584C81.6521 31.92 82.9748 30.6293 84.7028 29.712C86.4521 28.7733 88.5641 28.304 91.0388 28.304C92.1694 28.304 93.2148 28.432 94.1748 28.688C95.1561 28.944 96.0841 29.3173 96.9588 29.808L97.0868 34.288H96.7668L94.9748 30.96C94.6974 30.4267 94.4414 30.0427 94.2068 29.808C93.9721 29.5733 93.6734 29.392 93.3108 29.264C92.9694 29.1573 92.6494 29.0827 92.3508 29.04C92.0734 28.976 91.7001 28.944 91.2308 28.944C89.9081 28.944 88.7348 29.296 87.7108 30C86.7081 30.704 85.9294 31.824 85.3748 33.36C84.8201 34.896 84.5428 36.912 84.5428 39.408C84.5428 41.8827 84.7988 43.8987 85.3108 45.456C85.8441 47.0133 86.5908 48.1547 87.5508 48.88C88.5108 49.584 89.6201 49.936 90.8788 49.936C91.0708 49.936 91.2521 49.9253 91.4228 49.904C91.6148 49.8613 91.7961 49.8187 91.9668 49.776C92.3721 49.712 92.6388 49.5413 92.7668 49.264C92.8948 48.9867 92.9588 48.656 92.9588 48.272V41.936C92.9588 41.104 92.5321 40.592 91.6788 40.4L90.2068 40.016V39.696H99.2308V40.016L98.7828 40.144C97.9721 40.4 97.5668 40.9333 97.5668 41.744V48.688C96.4574 49.3067 95.3268 49.776 94.1748 50.096C93.0441 50.416 91.7748 50.576 90.3668 50.576ZM99.0998 50V49.68L99.8997 49.392C100.326 49.2213 100.657 49.0187 100.892 48.784C101.126 48.528 101.318 48.176 101.468 47.728L108.06 28.816H110.78L117.276 47.856C117.446 48.3253 117.638 48.688 117.852 48.944C118.065 49.1787 118.396 49.3813 118.844 49.552L119.228 49.68V50H111.1V49.68L111.58 49.52C112.028 49.3493 112.294 49.1147 112.38 48.816C112.486 48.496 112.476 48.1227 112.348 47.696L110.844 43.088H103.74L102.204 47.6C102.054 48.0693 102.001 48.4427 102.044 48.72C102.108 48.9973 102.364 49.2213 102.812 49.392L103.516 49.68V50H99.0998ZM103.964 42.448H110.652L107.42 32.496L103.964 42.448ZM119.33 26.608C120.119 26.608 120.748 26.896 121.218 27.472C121.708 28.0267 121.954 28.7627 121.954 29.68C121.954 30.8747 121.602 31.9947 120.898 33.04C120.194 34.064 119.319 34.832 118.274 35.344L118.082 34.96C118.53 34.6187 118.924 34.1813 119.266 33.648C119.607 33.1147 119.852 32.4533 120.002 31.664L119.33 31.504C118.583 31.3333 117.996 31.024 117.57 30.576C117.164 30.1067 116.962 29.552 116.962 28.912C116.962 28.2293 117.186 27.6747 117.634 27.248C118.103 26.8213 118.668 26.608 119.33 26.608ZM126.082 26.608C126.871 26.608 127.5 26.896 127.97 27.472C128.46 28.0267 128.706 28.7627 128.706 29.68C128.706 30.8747 128.354 31.9947 127.65 33.04C126.946 34.064 126.071 34.832 125.026 35.344L124.834 34.96C125.282 34.6187 125.676 34.1813 126.018 33.648C126.359 33.1147 126.604 32.4533 126.754 31.664L126.082 31.504C125.335 31.3333 124.748 31.024 124.322 30.576C123.916 30.1067 123.714 29.552 123.714 28.912C123.714 28.2293 123.938 27.6747 124.385 27.248C124.855 26.8213 125.42 26.608 126.082 26.608Z" fill="#006B0B"/>
</svg>
