<svg width="220" height="287" viewBox="0 0 220 287" fill="none" xmlns="http://www.w3.org/2000/svg">
<rect y="50" width="220" height="220" rx="60" fill="#006B0B"/>
<path d="M43.2469 230L39.2469 193.8H47.4469L55.2469 221.8L49.0469 217.2H93.8469L90.2469 221.8L90.8469 208.8C63.8469 198.2 44.4469 177.4 44.4469 146.2C44.4469 102.2 76.2469 81.2 109.847 81.2C144.047 81.2 175.447 102.6 175.447 145.6C175.447 174 158.247 196 128.847 208.8L129.447 221.6L126.047 217.2H170.247L164.647 222L172.447 193.8H180.447L176.647 230H122.447L120.847 205.6C145.847 192.6 157.047 174 157.047 145.4C157.047 108 136.647 88.4 109.847 88.4C83.8469 88.4 63.0469 107.4 63.0469 145.4C63.0469 175.4 74.8469 192.8 99.0469 205.6L97.4469 230H43.2469Z" fill="white"/>
</svg>
